<?xml version="1.0" standalone="no"?>
<!DOCTYPE svg PUBLIC "-//W3C//DTD SVG 1.1//EN" "http://www.w3.org/Graphics/SVG/1.1/DTD/svg11.dtd" >
<svg xmlns="http://www.w3.org/2000/svg">
<metadata>
This is a custom SVG webfont generated by Font Squirrel.
Copyright   : Copyright c 199297 HewlettPackard All rights reserved
</metadata>
<defs>
<font id="ITCAvantGardeGothicBkOb" horiz-adv-x="0" >
<font-face units-per-em="2048" ascent="1638" descent="-410" />
<missing-glyph horiz-adv-x="567" />
<glyph unicode=" "  horiz-adv-x="567" />
<glyph unicode="&#x09;" horiz-adv-x="567" />
<glyph unicode="&#xa0;" horiz-adv-x="567" />
<glyph unicode="!" horiz-adv-x="604" d="M227 0l48 258h150l-48 -258h-150zM306 399l209 1112h149l-215 -1112h-143z" />
<glyph unicode="&#x22;" horiz-adv-x="633" d="M266 911l90 604h164l-138 -604h-116zM586 911l90 604h164l-138 -604h-116z" />
<glyph unicode="#" horiz-adv-x="1135" d="M145 425l26 138h226l129 396h-224l26 138h242l136 418h139l-136 -418h253l136 418h139l-136 -418h172l-26 -138h-190l-129 -396h188l-26 -138h-207l-138 -426h-139l138 426h-253l-138 -426h-139l138 426h-207zM535 563h255l128 396h-255z" />
<glyph unicode="$" horiz-adv-x="1135" d="M219 374q0 45 9 93h161q-26 -133 29.5 -207t179.5 -74q123 0 212.5 75.5t112.5 199.5q21 109 -28 174t-184 103q-193 56 -269 146q-55 65 -55 160q0 33 7 71q33 171 162 276q97 79 218 98l32 169h150l-32 -165q128 -17 197.5 -98.5t69.5 -210.5q1 -32 -4 -67h-152 q16 113 -37 179t-161 66q-110 0 -189.5 -67t-100.5 -176q-17 -91 36 -148q52 -57 190 -97q190 -54 262 -152q51 -68 50 -166q1 -43 -9 -91q-35 -186 -174 -300q-108 -88 -252 -109l-37 -202h-150l37 202q-133 20 -210 112q-71 86 -71 206z" />
<glyph unicode="%" horiz-adv-x="1587" d="M254 1102q0 175 134 305t314 130q136 0 222.5 -83.5t86.5 -215.5q-1 -174 -135 -304t-314 -130q-136 0 -222 83.5t-86 214.5zM281 -5l1156 1520h135l-1156 -1520h-135zM378 1122q-1 -90 57 -147t149 -57q123 0 213 89.5t90 211.5q0 90 -57.5 147t-149.5 57 q-122 0 -212 -89.5t-90 -211.5zM859 271q1 175 134.5 305t313.5 130q136 0 222.5 -83.5t86.5 -215.5q0 -174 -135 -304q-133 -130 -313 -130q-136 0 -222.5 83.5t-86.5 214.5zM983 291q0 -90 57.5 -147t148.5 -57q123 0 213 89.5t91 211.5q0 90 -58 147t-150 57 q-122 0 -212 -89.5t-90 -211.5z" />
<glyph unicode="&#x26;" horiz-adv-x="1550" d="M188 430q33 173 167 301q105 100 262 160q-66 84 -90 136q-37 80 -19 177q28 146 147.5 241.5t273.5 95.5q153 0 242.5 -104t61.5 -249q-24 -127 -140 -222q-90 -72 -225 -122l247 -292q296 446 295 440h171q1 11 -372 -552l302 -357l-127 -105l-271 322 q-114 -155 -226 -232q-136 -94 -307 -94q-187 0 -307 138.5t-85 317.5zM336 426q-23 -120 55 -213q79 -92 204 -92q126 0 235 83q90 67 189 207l-313 373q-134 -45 -225 -123q-119 -100 -145 -235zM670 1221q-14 -73 18 -139q23 -50 91 -132q110 35 188 88q100 72 119 169 q14 75 -38 133t-135 58q-87 0 -158 -52t-85 -125z" />
<glyph unicode="'" horiz-adv-x="406" d="M313 911l90 604h164l-138 -604h-116z" />
<glyph unicode="(" horiz-adv-x="756" d="M182 565q61 320 297 605.5t517 379.5l-29 -152q-232 -119 -408 -352t-224 -481q-47 -249 45 -483t282 -351l-29 -152q-249 96 -380 382t-71 604z" />
<glyph unicode=")" horiz-adv-x="756" d="M-48 -421l29 152q232 119 408 352t223 481q48 249 -43.5 483t-282.5 351l29 152q250 -96 380 -382q131 -286 70 -604q-61 -320 -296.5 -605.5t-516.5 -379.5z" />
<glyph unicode="*" horiz-adv-x="870" d="M348 1241l61 118l206 -80l37 236h124l-52 -236l237 80l15 -118l-238 -66l108 -186l-114 -73l-95 195l-169 -195l-86 73l180 187z" />
<glyph unicode="+" horiz-adv-x="1241" d="M188 448l27 140h444l84 444h140l-84 -444h444l-27 -140h-444l-85 -444h-140l85 444h-444z" />
<glyph unicode="," horiz-adv-x="567" d="M4 -139l254 397h149l-252 -397h-151z" />
<glyph unicode="-" horiz-adv-x="680" d="M156 508l27 137h558l-27 -137h-558z" />
<glyph unicode="." horiz-adv-x="567" d="M209 0l49 258h150l-49 -258h-150z" />
<glyph unicode="/" horiz-adv-x="895" d="M51 -205l896 1717h155l-896 -1717h-155z" />
<glyph unicode="0" horiz-adv-x="1135" d="M145 388q0 80 18 173l77 407q51 265 217 419t400 154q241 0 346 -156q69 -103 69 -259q0 -80 -18 -174l-78 -407q-50 -264 -216 -418q-164 -153 -400 -153q-239 0 -346 155q-69 103 -69 259zM312 554q-40 -211 31.5 -327.5t240.5 -116.5q174 0 288 114.5t155 329.5 l78 407q40 211 -31.5 327.5t-241.5 116.5q-173 0 -287 -114.5t-155 -329.5z" />
<glyph unicode="1" horiz-adv-x="1135" d="M532 0l262 1378h-258l26 137h410l-288 -1515h-76h-76z" />
<glyph unicode="2" horiz-adv-x="1135" d="M82 0l12 68l14 69l371 296q417 332 521 448q103 116 103 253q0 126 -71.5 198.5t-195.5 72.5q-151 0 -264.5 -107.5t-134.5 -270.5h-151q44 227 204 370.5t370 143.5q183 0 290 -102q106 -102 105 -278q-1 -181 -117 -318q-115 -136 -584 -510l-246 -196h762l-26 -137 h-962z" />
<glyph unicode="3" horiz-adv-x="1135" d="M150 475h153q-32 -154 46.5 -259.5t225.5 -105.5q159 0 276.5 121.5t116.5 286.5q0 121 -73.5 197t-189.5 76h-116l26 136h96q116 0 202 87t86 205q0 86 -52.5 136t-143.5 50q-103 0 -181 -74.5t-98 -192.5h-151q42 178 170 290.5t288 112.5q141 0 230.5 -84.5 t89.5 -217.5q0 -174 -138 -304q-39 -38 -85 -65q47 -21 84 -55q109 -98 110 -253q0 -236 -172 -412q-169 -176 -399 -176q-207 0 -321 142.5t-80 358.5z" />
<glyph unicode="4" horiz-adv-x="1135" d="M80 273l12 66l13 66l949 1110h89h89l-210 -1105h137l-26 -137h-137l-52 -273h-152l52 273h-764zM274 410h596l171 899z" />
<glyph unicode="5" horiz-adv-x="1135" d="M141 475h150q3 -180 80 -272.5t225 -92.5q169 0 305 145t135 326q0 139 -84.5 227t-219.5 88q-83 0 -183 -50.5t-152 -118.5l-113 41l280 747h679l-26 -137h-565l-162 -431q145 86 273 85q188 0 307 -120q120 -119 120 -308q-1 -253 -189 -442q-186 -188 -438 -188 q-203 0 -323 142.5t-99 358.5z" />
<glyph unicode="6" horiz-adv-x="1135" d="M133 394q-1 54 11 112q27 143 155 314q127 171 592 693h171l-452 -522q73 39 152 39q189 0 308.5 -119.5t119.5 -308.5q0 -252 -189 -440q-186 -188 -439 -188q-218 0 -340 155q-89 113 -89 265zM285 419q0 -137 84 -223t217 -86q183 0 317 141t135 333q0 137 -84 223.5 t-218 86.5q-182 0 -316 -142q-134 -141 -135 -333z" />
<glyph unicode="7" horiz-adv-x="1135" d="M225 0l878 1378h-720l26 137h872l-12 -66l-13 -67l-864 -1382h-167z" />
<glyph unicode="8" horiz-adv-x="1135" d="M158 354q0 219 172 382q78 74 169 115l-27 24q-92 86 -92 222q0 178 139.5 311t327.5 133q150 0 245.5 -87t95.5 -224q0 -178 -143 -310q-47 -43 -99 -73q42 -21 75 -54q112 -106 112 -273q0 -219 -168.5 -382.5t-396.5 -163.5q-180 0 -295 106t-115 274zM311 376 q1 -118 76 -192t195 -74q161 0 279.5 116.5t118.5 275.5q0 119 -76 194q-76 74 -196 74q-161 0 -278.5 -117.5t-118.5 -276.5zM533 1117q0 -88 58 -148q58 -59 144 -59q121 0 210 87.5t89 206.5q0 89 -56.5 145t-147.5 56q-120 0 -208.5 -85.5t-88.5 -202.5z" />
<glyph unicode="9" horiz-adv-x="1135" d="M227 912q1 252 189 440t441 188q218 0 339 -154q89 -113 89 -264q-1 -53 -11 -112q-27 -145 -155 -317q-127 -172 -592 -694h-171l454 525q-75 -40 -154 -40q-189 0 -309 119.5t-120 308.5zM380 930q0 -137 84 -223.5t218 -86.5q182 0 316 142q134 141 134 333 q1 137 -83.5 223t-217.5 86q-183 0 -316.5 -141t-134.5 -333z" />
<glyph unicode=":" horiz-adv-x="567" d="M209 0l49 258h150l-49 -258h-150zM373 862l49 258h150l-49 -258h-150z" />
<glyph unicode=";" horiz-adv-x="567" d="M4 -139l253 397h150l-250 -397h-153zM372 862l49 258h150l-49 -258h-150z" />
<glyph unicode="&#x3c;" horiz-adv-x="1241" d="M178 455l12 63l12 63l1127 464l-26 -137l-948 -390l799 -390l-25 -137z" />
<glyph unicode="=" horiz-adv-x="1241" d="M150 244l26 138h1028l-26 -138h-1028zM228 655l27 138h1028l-27 -138h-1028z" />
<glyph unicode="&#x3e;" horiz-adv-x="1241" d="M104 -9l25 137l947 390l-798 390l26 137l949 -464l-12 -63l-12 -63z" />
<glyph unicode="?" horiz-adv-x="1210" d="M324 1045q41 214 205 355t374 141q183 0 298.5 -137t82.5 -313q-22 -111 -80 -186t-223 -203q-92 -72 -148.5 -150.5t-71.5 -157.5h-152q20 107 96 214t199 202q129 101 171 152.5t57 128.5q23 121 -58 214q-80 93 -208 93q-142 0 -242.5 -89.5t-152.5 -263.5h-147z M535 0l49 258h150l-49 -258h-150z" />
<glyph unicode="@" horiz-adv-x="1776" d="M258 573q1 388 291 679.5t677 291.5q273 0 434.5 -143.5t160.5 -385.5q0 -258 -155 -477.5t-337 -219.5q-95 0 -125 98q-8 28 -11 58l-40 -39q-132 -117 -265 -117q-115 0 -190 75.5t-76 193.5q-2 220 150.5 393t348.5 173q137 0 199 -130q14 -30 20 -60l60 161h124 l-173 -469q-47 -128 -46.5 -174.5t48.5 -46.5q123 0 232.5 181t109.5 384q0 197 -130 310.5t-356 113.5q-346 0 -585 -244.5t-240 -598.5q0 -230 155 -360t429 -130q125 0 263.5 27.5t239.5 72.5l12 -101q-91 -52 -239 -84q-146 -31 -297 -31q-316 0 -503 162.5t-186 436.5z M745 605q1 -80 49.5 -127t129.5 -47q104 0 186.5 77.5t137.5 226.5q43 118 3.5 210.5t-133.5 92.5q-147 0 -261 -132.5t-112 -300.5z" />
<glyph unicode="A" horiz-adv-x="1516" d="M25 0l937 1515h83h83l362 -1515h-84h-84l-118 512h-701l-311 -512h-83h-84zM586 649h588l-162 698z" />
<glyph unicode="B" horiz-adv-x="1176" d="M152 0l288 1515h76h302q202 0 313 -85.5t111 -242.5q-1 -207 -155 -328q-36 -29 -79 -51q38 -17 69 -40q122 -90 123 -254v-3q0 -236 -176 -373.5t-479 -137.5h-317h-76zM329 134h241q221 0 348 95.5t127 260.5q0 114 -89 176t-253 62h-261zM468 862h226 q183 0 288.5 83.5t105.5 228.5q0 99 -76.5 153t-218.5 54h-226z" />
<glyph unicode="C" horiz-adv-x="1665" d="M215 620q0 361 292 641t668 280q212 0 384.5 -118t222.5 -297h-169q-52 124 -185 202.5t-291 78.5q-294 0 -529.5 -233.5t-236.5 -525.5q0 -231 152 -385.5t379 -154.5q154 0 316.5 80.5t264.5 208.5h169q-121 -183 -342 -303q-218 -120 -432 -120q-288 0 -475.5 182.5 t-187.5 463.5z" />
<glyph unicode="D" horiz-adv-x="1524" d="M152 0l288 1515h76h384q305 0 497 -170t192 -442q0 -35 -5 -81.5t-12 -84.5q-61 -322 -329 -530q-266 -207 -619 -207h-396h-76zM329 134h253q335 0 559 161.5t277 442.5q8 38 12 78t4 72q0 230 -161.5 361.5t-442.5 131.5h-263z" />
<glyph unicode="E" horiz-adv-x="1098" d="M143 0l288 1515h825l-12 -68l-14 -69h-673l-104 -545h648l-13 -68l-13 -69h-648l-106 -559h673l-13 -68l-13 -69h-825z" />
<glyph unicode="F" horiz-adv-x="993" d="M143 0l288 1515h761l-12 -68l-14 -69h-609l-104 -545h586l-13 -68l-13 -69h-586l-132 -696h-76h-76z" />
<glyph unicode="G" horiz-adv-x="1786" d="M211 623q0 360 300.5 639t687.5 279q218 0 395 -121.5t229 -305.5h-182q-55 130 -183.5 211.5t-277.5 81.5q-320 0 -565.5 -231t-246.5 -533q1 -234 157.5 -384.5t399.5 -150.5q301 0 533 234q103 104 156 218h-838l26 137h1022q-58 -241 -266 -443q-289 -280 -664 -280 q-296 0 -489 183.5t-194 465.5z" />
<glyph unicode="H" horiz-adv-x="1399" d="M156 0l288 1515h76h76l-127 -667h783l127 667h76h76l-288 -1515h-76h-76l135 711h-783l-135 -711h-76h-76z" />
<glyph unicode="I" horiz-adv-x="463" d="M156 0l288 1515h76h76l-288 -1515h-76h-76z" />
<glyph unicode="J" horiz-adv-x="987" d="M76 360h155q0 -121 56 -185.5t161 -64.5q113 0 191 83.5t108 236.5l206 1085h76h76l-213 -1119q-38 -201 -162 -312q-122 -110 -309 -110q-167 0 -265 110q-83 91 -83 223q0 26 3 53z" />
<glyph unicode="K" horiz-adv-x="1210" d="M166 0l288 1515h76h76l-165 -870l848 870h98h98l-738 -744l460 -771h-95h-96l-382 659l-236 -239l-80 -420h-76h-76z" />
<glyph unicode="L" horiz-adv-x="946" d="M168 0l288 1515h76h76l-262 -1378h620l-13 -68l-13 -69h-772z" />
<glyph unicode="M" horiz-adv-x="1882" d="M156 0l288 1515h115h116l307 -1297l795 1297h118h119l-288 -1515h-76h-76l258 1354l-826 -1354h-65h-65l-314 1332l-254 -1332h-76h-76z" />
<glyph unicode="N" horiz-adv-x="1516" d="M154 0l288 1515h102h103l610 -1265l241 1265h74h74l-288 -1515h-74h-75l-650 1348l-257 -1348h-74h-74z" />
<glyph unicode="O" horiz-adv-x="1780" d="M215 621q0 361 293 640.5t671 279.5q290 0 478 -182.5t188 -464.5q0 -361 -292.5 -640.5t-670.5 -279.5q-290 0 -478.5 182.5t-188.5 464.5zM371 640q-1 -232 150 -382t385 -150q309 0 546.5 232t236.5 535q1 232 -150 382t-385 150q-309 0 -546.5 -232t-236.5 -535z" />
<glyph unicode="P" horiz-adv-x="1212" d="M154 0l288 1515h76h352q234 0 362.5 -95.5t128.5 -269.5q0 -250 -178.5 -395.5t-484.5 -145.5h-276l-116 -609h-76h-76zM447 743h276q224 0 353 102.5t129 280.5q1 122 -93.5 188.5t-266.5 66.5h-276z" />
<glyph unicode="Q" horiz-adv-x="1784" d="M209 623q0 360 297 639t680 279q295 0 486 -183.5t192 -465.5q0 -360 -297 -639q-33 -32 -70 -60l39 -30q83 -58 150 -58h22l-25 -136h-60q-69 0 -166 67q-38 28 -85 69q-220 -131 -483 -131q-296 0 -487.5 183.5t-192.5 465.5zM366 642q0 -37 4 -71q139 50 318 51 q211 0 364 -64t282 -206l67 -71q34 27 67 59q240 231 240 533q-1 233 -154.5 383.5t-392.5 150.5q-314 0 -554.5 -231.5t-240.5 -533.5zM398 447q38 -105 123 -189q153 -150 392 -150q196 0 361 89l-51 55q-116 123 -252 179q-136 55 -322 55q-132 0 -229 -31z" />
<glyph unicode="R" horiz-adv-x="1243" d="M143 0l288 1515h76h363q239 0 370 -103.5t131 -292.5q0 -250 -191 -408q-147 -120 -357 -149l328 -562h-98h-99l-387 688h146q224 0 363.5 113.5t139.5 295.5q0 136 -96.5 210t-274.5 74h-287l-263 -1381h-76h-76z" />
<glyph unicode="S" horiz-adv-x="1020" d="M117 329q1 45 9 95h152q-6 -32 -6 -62q0 -92 55 -162q72 -92 201 -92q134 0 239 85t129 214q7 36 7 68q0 83 -47 138q-64 77 -235 123q-198 53 -275 148q-55 68 -55 165q0 43 8 86q33 175 175.5 290.5t324.5 115.5q177 0 276 -118q75 -91 75 -214q0 -39 -7 -80h-150 q6 30 6 58q0 79 -47 139q-63 80 -178 81q-117 0 -209 -75t-113 -189q-5 -27 -5 -52q0 -66 39 -111q55 -61 198 -100q225 -61 313 -172q61 -79 62 -196q0 -45 -10 -97q-37 -190 -193 -316q-153 -125 -352 -125q-201 0 -308 125q-78 95 -79 230z" />
<glyph unicode="T" horiz-adv-x="872" d="M268 1378l13 68l13 69h852l-12 -68l-14 -69h-350l-262 -1378h-76h-76l262 1378h-350z" />
<glyph unicode="U" horiz-adv-x="1341" d="M242 403v8q0 72 16 155l181 949h76h76l-180 -948q-14 -73 -14 -136q0 -116 49 -197q75 -123 243 -123q178 0 293 116.5t158 339.5l180 948h74h74l-181 -949q-54 -284 -217 -438q-161 -154 -408 -154q-236 0 -347 160q-73 109 -73 269z" />
<glyph unicode="V" horiz-adv-x="1438" d="M297 1515h83h84l284 -1322l785 1322h83h83l-914 -1515h-74h-75z" />
<glyph unicode="W" horiz-adv-x="1966" d="M303 1515h78h78l127 -1331l607 1331h74h75l117 -1327l615 1327h79h80l-716 -1515h-96h-97l-102 1267l-574 -1267h-96h-97z" />
<glyph unicode="X" horiz-adv-x="1247" d="M16 0l668 784l-356 731h88h89l291 -601l511 601h92h92l-629 -739l377 -776h-88h-89l-313 646l-549 -646h-92h-92z" />
<glyph unicode="Y" horiz-adv-x="1212" d="M283 1515h82h83l277 -859l601 859h84h84l-723 -1021l-94 -494h-76h-76l98 518z" />
<glyph unicode="Z" horiz-adv-x="983" d="M25 0l12 66l13 67l970 1245h-713l13 68l13 69h892l-12 -66l-13 -67l-969 -1245h759l-13 -68l-13 -69h-939z" />
<glyph unicode="[" horiz-adv-x="719" d="M297 196l147 773q42 220 168 357.5t356 214.5l-29 -152q-168 -86 -240 -174t-101 -243l-142 -746q-34 -178 2.5 -264t184.5 -176l-29 -152q-205 79 -281 214t-36 348z" />
<glyph unicode="\" horiz-adv-x="1239" d="M522 1512h155l261 -1717h-155z" />
<glyph unicode="]" horiz-adv-x="719" d="M-38 -366l29 152q163 84 232.5 171.5t99.5 245.5l143 746q34 181 -0.5 266.5t-178.5 173.5l29 152q202 -77 275.5 -212t32.5 -350l-147 -773q-42 -222 -165.5 -359t-349.5 -213z" />
<glyph unicode="^" horiz-adv-x="1241" d="M225 627l602 886h67h67l293 -886h-145l-243 734l-496 -734h-145z" />
<glyph unicode="_" horiz-adv-x="1024" d="M-46 -256l20 104h1024l-20 -104h-1024z" />
<glyph unicode="`" horiz-adv-x="774" d="M418 1485l86 124l365 -219l-86 -122z" />
<glyph unicode="a" horiz-adv-x="1399" d="M180 457q0 268 213.5 480t483.5 212q248 0 380 -168q21 -28 39 -58l37 197h144l-213 -1120h-72h-72l37 194q-27 -29 -59 -56q-191 -164 -444 -164q-205 0 -339.5 137t-134.5 346zM323 467q-1 -160 104 -265t266 -105q193 0 346 132t191 331q10 51 10 97q0 132 -78 231 q-104 134 -293 134q-213 0 -379.5 -169.5t-166.5 -385.5z" />
<glyph unicode="b" horiz-adv-x="1397" d="M139 0l288 1515h72h72l-112 -590l61 57q196 167 443 167q204 0 337.5 -137t134.5 -346q-1 -268 -214 -480q-211 -212 -481 -212q-246 0 -379 168l-40 58l-38 -200h-144zM386 564q-10 -51 -10 -98q0 -132 77 -231q104 -134 292 -134q213 0 379.5 169.5t167.5 385.5 q0 160 -105 265t-266 105q-188 0 -343 -134t-192 -328z" />
<glyph unicode="c" horiz-adv-x="1325" d="M396 939q217 210 501 210q187 0 315.5 -95.5t177.5 -269.5h-157q-49 116 -141 177t-217 61q-211 0 -381.5 -171t-170.5 -383q0 -161 108 -264t278 -103q134 0 254.5 63t182.5 165h157q-112 -170 -274 -263q-159 -92 -343 -92q-219 0 -364 136q-144 135 -144 341 q0 277 218 488z" />
<glyph unicode="d" horiz-adv-x="1403" d="M174 457q0 268 214 480t485 212q249 0 381 -168q23 -29 39 -61l113 595h72h72l-288 -1515h-72h-72l37 195q-28 -30 -60 -57q-192 -164 -445 -164q-206 0 -341 137t-135 346zM317 467q-1 -160 104.5 -265t267.5 -105q194 0 347.5 132t191.5 331q10 50 10 97q0 132 -78 231 q-106 134 -295 134q-213 0 -380.5 -169.5t-167.5 -385.5z" />
<glyph unicode="e" horiz-adv-x="1331" d="M172 459q0 273 214.5 481.5t493.5 208.5q209 0 346 -137.5t137 -347.5v-8q0 -76 -19 -148h-1028l-1 -41q-1 -159 101 -262.5t258 -103.5q143 0 267 72.5t183 190.5h157q-103 -186 -265.5 -288t-358.5 -102q-209 0 -347 137.5t-138 347.5zM339 634h880l1 20 q1 159 -103 263.5t-262 104.5q-213 0 -377 -169q-96 -99 -139 -219z" />
<glyph unicode="f" horiz-adv-x="643" d="M213 0l188 990h-181l25 130h181l5 24q37 193 156 295t309 102h32l-25 -133l-24 1q-124 0 -201 -63.5t-100 -184.5l-8 -41h278l-25 -130h-278l-188 -990h-72h-72z" />
<glyph unicode="g" horiz-adv-x="1378" d="M115 -28h152q32 -139 126 -211.5t242 -72.5q185 0 312 114t165 315l14 76q-25 -28 -55 -54q-189 -165 -438 -165q-200 0 -331.5 136.5t-131.5 344.5q1 269 211 481.5t476 212.5q243 0 372 -167q21 -27 37 -56l37 194h144l-191 -1003q-49 -260 -221 -408t-424 -148 q-210 0 -341.5 109.5t-154.5 301.5zM314 469q0 -159 102.5 -263.5t258.5 -104.5q188 0 338 132t188 331q10 52 10 99q0 131 -75 229q-101 134 -285 134q-209 0 -373 -170t-164 -387z" />
<glyph unicode="h" horiz-adv-x="1249" d="M127 0l288 1515h72h72l-101 -530l29 26q154 138 343 138q227 1 335 -145q76 -102 76 -253q0 -64 -14 -136l-117 -615h-72h-72l117 616q11 59 11 111q0 110 -50 184q-74 109 -238 109q-146 0 -263 -101.5t-145 -252.5l-127 -666h-72h-72z" />
<glyph unicode="i" horiz-adv-x="410" d="M133 0l213 1120h72h72l-213 -1120h-72h-72zM373 1260l48 255h144l-48 -255h-144z" />
<glyph unicode="j" horiz-adv-x="416" d="M-163 -392l26 136q106 0 178 72.5t97 205.5l209 1098h72h72l-209 -1098q-35 -189 -150.5 -301.5t-274.5 -112.5h-20zM374 1260l48 255h144l-48 -255h-144z" />
<glyph unicode="k" horiz-adv-x="1028" d="M143 0l288 1515h72h72l-204 -1072l651 677h91h91l-550 -568l372 -552h-92h-92l-295 443l-219 -227l-41 -216h-72h-72z" />
<glyph unicode="l" horiz-adv-x="410" d="M133 0l288 1515h72h72l-288 -1515h-72h-72z" />
<glyph unicode="m" horiz-adv-x="1921" d="M135 0l213 1120h68h69l-23 -123l19 19q137 133 318 133q202 0 303 -135q27 -37 45 -80q35 50 81 93q135 122 321 122q205 0 307 -137q71 -95 71 -234v-8q0 -53 -12 -113l-125 -657h-72h-72l126 664q10 50 10 95q0 96 -46 163q-68 98 -208 98q-128 0 -231 -92t-129 -229 l-133 -699h-72h-72l126 664q10 50 10 95q-1 96 -47 163q-68 98 -207 98q-137 0 -237 -96t-130 -258l-127 -666h-72h-72z" />
<glyph unicode="n" horiz-adv-x="1249" d="M133 0l213 1120h72h72l-26 -135l29 26q154 138 343 138q227 1 335 -145q76 -102 76 -253q0 -64 -14 -136l-117 -615h-72h-72l117 616q11 59 11 111q0 110 -50 184q-74 109 -238 109q-146 0 -263 -101.5t-145 -252.5l-127 -666h-72h-72z" />
<glyph unicode="o" horiz-adv-x="1341" d="M180 458q0 273 214 482t493 209q209 0 346 -137.5t137 -347.5q0 -273 -215 -482q-212 -208 -491 -208q-209 0 -346.5 137.5t-137.5 346.5zM323 468q-1 -159 102.5 -263t261.5 -104q212 0 376 168t164 385q1 159 -103 263.5t-262 104.5q-212 0 -375.5 -168t-163.5 -386z " />
<glyph unicode="p" horiz-adv-x="1397" d="M57 -394l288 1514h72h72l-37 -196q30 32 61 58q196 167 443 167q204 0 337.5 -137t134.5 -346q-1 -268 -214 -480q-211 -212 -481 -212q-246 0 -379 168l-40 58l-113 -594h-72h-72zM379 564q-10 -51 -10 -98q0 -131 77 -230q104 -135 292 -135q213 0 379.5 169.5 t167.5 385.5q0 160 -105 265t-266 105q-188 0 -343 -134t-192 -328z" />
<glyph unicode="q" horiz-adv-x="1397" d="M170 457q0 268 214.5 480t486.5 212q250 0 383 -168q24 -29 40 -62l38 201h144l-288 -1514h-72h-72l112 589l-61 -57q-193 -164 -448 -164q-206 0 -341.5 137t-135.5 346zM313 467q-1 -160 105.5 -265t269.5 -105q195 0 349 132t192 331q10 50 10 96q0 133 -79 232 q-106 134 -296 134q-215 0 -383 -169.5t-168 -385.5z" />
<glyph unicode="r" horiz-adv-x="616" d="M133 0l213 1120h68h69l-32 -168l26 32q137 165 302 165l35 -1l-29 -154q-148 -1 -252 -98.5t-137 -269.5l-119 -626h-72h-72z" />
<glyph unicode="s" horiz-adv-x="795" d="M107 333h147q-6 -34 -6 -64q0 -65 29 -107q42 -61 137 -61q89 0 158 55.5t85 139.5q4 23 4 43q0 56 -32 96q-43 54 -162 96q-141 48 -196 124q-38 55 -39 128q0 29 6 61q25 131 131 218t241 87q134 0 205 -86q54 -65 54 -156q0 -30 -6 -64h-143q1 11 1 21q0 64 -33 108 q-38 50 -103 50q-72 0 -128.5 -46t-69.5 -116q-4 -18 -3 -34q0 -49 31 -84q41 -47 153 -85q148 -51 205 -136q38 -57 38 -134v-4q0 -37 -8 -79q-28 -149 -142 -240q-112 -90 -270 -90q-155 0 -234 99q-57 71 -57 176q0 41 7 84z" />
<glyph unicode="t" horiz-adv-x="694" d="M213 990l25 130h237l75 392h144l-75 -392h263l-25 -130h-263l-188 -990h-144l188 990h-237z" />
<glyph unicode="u" horiz-adv-x="1245" d="M205 350q0 72 16 156l117 614h72h72l-117 -616q-14 -72 -14 -131q0 -105 44 -169q69 -100 245 -101q145 0 261.5 101t144.5 252l127 664h72h72l-213 -1120h-68h-69l28 150q-17 -19 -38 -38q-151 -138 -339 -138q-242 0 -345 137q-68 93 -68 239z" />
<glyph unicode="v" horiz-adv-x="1135" d="M221 1120h77h77l216 -952l577 952h78h78l-685 -1120h-79h-80z" />
<glyph unicode="w" horiz-adv-x="1702" d="M233 1120h75h75l178 -939l412 805h62h62l104 -812l538 946h73h74l-643 -1120h-79h-80l-92 756l-382 -756h-79h-80z" />
<glyph unicode="x" horiz-adv-x="983" d="M25 0l490 563l-273 557h85h86l212 -432l375 432h87h87l-488 -560l275 -560h-85h-86l-214 435l-377 -435h-87h-87z" />
<glyph unicode="y" horiz-adv-x="1098" d="M199 -392l275 430l-237 1082h74h75l195 -903l544 903h78h78l-930 -1512h-76h-76z" />
<glyph unicode="z" horiz-adv-x="870" d="M20 0l11 58l11 58l786 878h-597l12 63l12 63h774l-11 -58l-11 -58l-785 -878h655l-12 -63l-12 -63h-833z" />
<glyph unicode="{" horiz-adv-x="719" d="M236 497l26 134q90 0 153.5 76t81.5 205l50 258q30 209 112.5 278.5t300.5 69.5l-23 -123q-128 0 -171.5 -41.5t-64.5 -183.5l-50 -258q-26 -185 -130 -281q-46 -43 -107 -66q51 -27 81 -68q68 -96 24 -281l-49 -258q-33 -142 -5 -183.5t156 -41.5l-24 -123 q-218 0 -274 69.5t-7 278.5l49 258q30 129 -4.5 205t-124.5 76z" />
<glyph unicode="|" horiz-adv-x="1376" d="M573 -512l388 2042h147l-388 -2042h-147z" />
<glyph unicode="}" horiz-adv-x="719" d="M-30 -390l24 123q128 0 171 41.5t64 183.5l49 258q26 185 130 281q46 41 107 68q-51 23 -81 66q-68 96 -24 281l50 258q33 142 5.5 183.5t-155.5 41.5l23 123q218 0 274.5 -69.5t6.5 -278.5l-50 -258q-30 -129 4.5 -205t124.5 -76l-26 -134q-90 0 -153.5 -76t-81.5 -205 l-49 -258q-29 -209 -113 -279q-82 -69 -300 -69z" />
<glyph unicode="~" horiz-adv-x="1241" d="M233 467q63 89 140 136.5t151 41.5q54 -4 111.5 -22.5t118.5 -52.5q79 -43 113.5 -57.5t63.5 -16.5q45 -4 96.5 34.5t116.5 124.5l55 -102q-107 -111 -162.5 -145t-128.5 -34q-47 0 -104 21.5t-125 64.5q-50 32 -96.5 47.5t-93.5 15.5q-52 0 -95.5 -34t-106.5 -124z" />
<glyph unicode="&#xa1;" horiz-adv-x="604" d="M152 -389l215 1112h143l-209 -1112h-149zM391 864l48 258h150l-48 -258h-150z" />
<glyph unicode="&#xa2;" horiz-adv-x="1135" d="M236 700v3q0 48 8 93q31 162 170 293q145 136 325 161l38 201h153l-37 -198q110 -16 190 -77q103 -81 139 -228h-167q-32 83 -99 127t-164 44q-153 0 -276.5 -123t-123.5 -275q0 -116 80.5 -195t198.5 -79q87 0 177.5 44t127.5 105h169q-97 -142 -223 -214 q-96 -55 -209 -68l-36 -189h-153l37 191q-122 22 -210 106q-115 110 -115 278z" />
<glyph unicode="&#xa3;" horiz-adv-x="1135" d="M59 0l24 128h310l14 21q80 122 100 225q12 66 -15.5 139t-91.5 144l-47 58h-213l24 128h128q-33 102 -14 197q41 216 204.5 358.5t371.5 142.5q177 0 292.5 -124.5t106.5 -306.5h-145q-9 146 -80.5 224t-195.5 78q-141 0 -258.5 -106t-146.5 -261q-15 -78 7 -152l18 -50 h583l-24 -128h-463q66 -79 93 -153q35 -93 17 -188q-23 -122 -100 -230l-11 -16h98q201 0 318.5 117.5t101.5 304.5h149q26 -227 -146.5 -388.5t-441.5 -161.5h-567z" />
<glyph unicode="&#xa4;" horiz-adv-x="1135" d="M49 174l234 197q-65 113 -36 265q30 153 137 267l-159 196l106 89l160 -197q130 86 281 86q153 -1 250 -86l234 197l72 -89l-236 -198q66 -113 37 -265q-28 -150 -137 -265l160 -197l-106 -89l-159 196q-131 -85 -283 -86q-152 1 -251 85l-232 -195zM370 636 q-26 -134 48.5 -226t208.5 -92t243.5 92t135.5 226q25 134 -49.5 226t-208.5 92t-243.5 -92t-134.5 -226z" />
<glyph unicode="&#xa5;" horiz-adv-x="1135" d="M154 465l25 130h425l21 111l-25 62h-388l25 130h310l-255 617h83h84l270 -664l515 664h87h87l-484 -617h305l-25 -130h-383l-56 -71l-19 -102h425l-25 -130h-425l-88 -465h-76h-76l88 465h-425z" />
<glyph unicode="&#xa6;" horiz-adv-x="1376" d="M573 -342l130 683h147l-130 -683h-147zM768 682l130 683h147l-130 -683h-147z" />
<glyph unicode="&#xa7;" horiz-adv-x="1260" d="M242 130h150q-17 -132 42.5 -209t178.5 -77q109 0 193.5 74.5t84.5 170.5q0 65 -36.5 108.5t-140.5 102.5l-151 86q-151 86 -203.5 145t-52.5 141q0 147 139 261q51 42 108 69l-4 6q-48 62 -48 160q0 146 129 260q128 113 293 113q154 0 234.5 -83.5t58.5 -221.5h-143 q4 79 -42 125t-128 46q-98 0 -173.5 -70t-75.5 -160q0 -52 31.5 -88.5t122.5 -88.5l150 -85q139 -79 187.5 -139.5t48.5 -152.5q0 -162 -172 -288l-54 -36l20 -23q55 -72 55 -178q0 -152 -137 -270t-314 -118q-179 0 -275.5 115t-75.5 305zM460 702q0 -49 36.5 -87 t139.5 -97l151 -86q55 -31 98 -62l32 21q125 88 125 202q0 59 -32 98t-123 91l-150 85q-58 33 -101 64q-43 -20 -84 -53q-92 -77 -92 -176z" />
<glyph unicode="&#xa8;" horiz-adv-x="756" d="M391 1307l49 258h150l-49 -258h-150zM698 1307l49 258h150l-49 -258h-150z" />
<glyph unicode="&#xa9;" horiz-adv-x="1530" d="M109 756q62 329 333 556.5t600 227.5t513 -227.5t122 -556.5q-63 -329 -334 -557q-269 -227 -599 -227t-514 227.5t-121 556.5zM221 756q-54 -282 104 -477t440 -195t514 195t286 477t-103.5 477t-440.5 195t-514.5 -195t-285.5 -477zM457 657q0 235 156.5 403t375.5 168 q147 0 243.5 -89.5t96.5 -225.5h-119q-13 107 -69 158t-161 51q-178 0 -295 -132q-115 -131 -114 -334q-1 -123 76 -191.5t215 -68.5q86 0 162 55t125 153h126q-51 -134 -175.5 -222.5t-261.5 -88.5q-175 0 -278 98.5t-103 265.5z" />
<glyph unicode="&#xaa;" horiz-adv-x="756" d="M209 1120q1 170 129.5 296t301.5 126q149 0 209 -91q13 -17 20 -39l21 113h124l-129 -679h-62h-62l23 119q-19 -29 -41 -51q-82 -80 -245 -80q-122 0 -205.5 82.5t-83.5 203.5zM332 1144q0 -87 58 -142.5t148 -55.5q107 0 191 68.5t104 172.5q18 96 -42.5 168.5 t-160.5 72.5q-121 0 -209.5 -84.5t-88.5 -199.5z" />
<glyph unicode="&#xab;" horiz-adv-x="870" d="M188 575l315 411l105 -68l-263 -343l132 -343l-131 -68zM546 575l315 411l105 -68l-263 -343l132 -343l-131 -68z" />
<glyph unicode="&#xac;" horiz-adv-x="1241" d="M225 654l27 141h1032l-109 -570h-141l82 429h-891z" />
<glyph unicode="&#xad;" horiz-adv-x="680" d="M156 508l27 137h558l-27 -137h-558z" />
<glyph unicode="&#xae;" horiz-adv-x="1530" d="M109 756q62 329 333 556.5t600 227.5t513 -227.5t122 -556.5q-63 -329 -334 -557q-269 -227 -599 -227t-514 227.5t-121 556.5zM221 756q-54 -282 104 -477t440 -195t514 195t286 477t-103.5 477t-440.5 195t-514.5 -195t-285.5 -477zM469 303l171 896h57h297 q146 0 221 -48.5t75 -143.5q0 -142 -100 -216q-53 -40 -137 -59q76 -7 108 -51q41 -53 25 -174l-17 -136q-3 -29 -2.5 -44.5t4.5 -23.5h-58h-58q-3 12 -3 32.5t5 58.5l11 92q16 118 -21.5 157.5t-165.5 39.5h-225l-73 -380h-57h-57zM675 783h241q121 0 188 49t67 138 q-1 61 -50.5 93.5t-144.5 32.5h-241z" />
<glyph unicode="&#xaf;" horiz-adv-x="1024" d="M266 1668l19 103h1056l-19 -103h-1056z" />
<glyph unicode="&#xb0;" horiz-adv-x="819" d="M324 1156q26 124 129 209.5t227 85.5t192 -85.5t42 -209.5t-130 -210q-102 -85 -226 -85t-192 85.5t-42 209.5zM428 1156q-17 -80 27 -135.5t124 -55.5t147 55.5t84 135.5q16 80 -28 135.5t-124 55.5t-147 -55.5t-83 -135.5z" />
<glyph unicode="&#xb1;" horiz-adv-x="1241" d="M96 -52l25 141h1028l-25 -141h-1028zM211 557l26 140h444l70 362h140l-70 -362h444l-26 -140h-444l-69 -362h-140l69 362h-444z" />
<glyph unicode="&#xb2;" horiz-adv-x="680" d="M152 606l10 51l10 51l214 162q236 178 306 250q69 71 69 135q0 76 -41.5 119.5t-112.5 43.5q-85 0 -142.5 -59.5t-67.5 -158.5h-126q24 152 122.5 241t242.5 89q110 0 180 -70q70 -69 70 -179v-6q0 -105 -71 -185q-72 -82 -369 -306l-90 -68h430l-21 -110h-613z" />
<glyph unicode="&#xb3;" horiz-adv-x="680" d="M193 910h124q-18 -87 26.5 -147t126.5 -60q85 0 147 62t62 147q1 70 -45 111.5t-123 41.5h-57l21 112h70q64 0 108 40q42 39 42 97q0 48 -28 76t-76 28q-54 0 -95.5 -42t-53.5 -109h-119q30 124 108 193.5t188 69.5q90 0 147.5 -55.5t57.5 -143.5q0 -101 -92 -186 l-24 -20q18 -10 33 -24q69 -62 69 -161v-3q1 -139 -109 -242.5t-258 -103.5q-139 0 -206 86t-44 233z" />
<glyph unicode="&#xb4;" horiz-adv-x="768" d="M416 1386l447 221l45 -120l-448 -219z" />
<glyph unicode="&#xb5;" horiz-adv-x="1245" d="M94 -375l135 711l149 784h144l-117 -616q-35 -180 32 -290.5t211 -110.5q125 0 234 95t134 225l133 697h144l-213 -1120h-144l29 154q-23 -29 -50 -56q-125 -124 -291 -124q-176 0 -247 86q-28 36 -41 85l-98 -520h-144z" />
<glyph unicode="&#xb6;" horiz-adv-x="1155" d="M244 1023q0 221 148.5 356.5t392.5 135.5h632l-21 -113h-131l-310 -1629h-126l310 1629h-247l-310 -1629h-128l177 930q-181 2 -284 86t-103 234z" />
<glyph unicode="&#xb7;" horiz-adv-x="567" d="M281 628l50 258h150l-50 -258h-150z" />
<glyph unicode="&#xb8;" horiz-adv-x="664" d="M106 -307l88 9q4 -39 24.5 -60t54.5 -21q41 0 71 26.5t39 70.5q8 43 -13 74.5t-58 31.5q-27 0 -57.5 -13.5t-42.5 -30.5l-70 37l117 183h86l-75 -120q42 15 73 16q65 0 101.5 -53.5t22.5 -128.5q-13 -66 -75.5 -117t-131.5 -51q-72 0 -112 38t-42 109z" />
<glyph unicode="&#xb9;" horiz-adv-x="680" d="M389 1403l21 112h275l-173 -909h-61h-61l152 797h-153z" />
<glyph unicode="&#xba;" horiz-adv-x="756" d="M238 1126q1 160 132 288t295 128q126 0 209 -83t83 -210q-1 -164 -129.5 -289.5t-297.5 -125.5q-126 0 -209 83t-83 209zM363 1139q0 -83 53 -137t135 -54q110 0 196 87.5t85 200.5q0 83 -53.5 137.5t-135.5 54.5q-110 0 -196 -88q-84 -87 -84 -201z" />
<glyph unicode="&#xbb;" horiz-adv-x="870" d="M123 232l262 343l-131 343l131 68l157 -411l-314 -411zM481 232l262 343l-131 343l131 68l157 -411l-314 -411z" />
<glyph unicode="&#xbc;" horiz-adv-x="1702" d="M375 0l962 1515h125l-962 -1515h-125zM474 1403l21 112h275l-173 -909h-61h-61l152 797h-153zM862 159l11 53l10 53l566 644h67h68l-122 -640h87l-21 -110h-87l-30 -159h-122l30 159h-457zM1023 269h317l88 460z" />
<glyph unicode="&#xbd;" horiz-adv-x="1702" d="M336 0l962 1515h125l-962 -1515h-125zM421 1403l21 112h275l-173 -909h-61h-61l152 797h-153zM916 0l10 51l10 51l214 162q236 178 306 250q69 71 69 135q0 76 -41.5 119.5t-112.5 43.5q-85 0 -142.5 -59.5t-67.5 -158.5h-126q24 152 122.5 241t242.5 89q110 0 180 -70 q70 -69 70 -179v-6q0 -105 -71 -185q-72 -82 -369 -306l-90 -68h430l-21 -110h-613z" />
<glyph unicode="&#xbe;" horiz-adv-x="1702" d="M523 0l962 1515h125l-962 -1515h-125zM258 910h124q-18 -87 26.5 -147t126.5 -60q85 0 147 62t62 147q1 70 -45 111.5t-123 41.5h-57l21 112h70q64 0 108 40q42 39 42 97q0 48 -28 76t-76 28q-54 0 -95.5 -42t-53.5 -109h-119q30 124 108 193.5t188 69.5 q90 0 147.5 -55.5t57.5 -143.5q0 -101 -92 -186l-24 -20q18 -10 33 -24q69 -62 69 -161v-3q1 -139 -109 -242.5t-258 -103.5q-139 0 -206 86t-44 233zM965 159l11 53l10 53l566 644h67h68l-122 -640h87l-21 -110h-87l-30 -159h-122l30 159h-457zM1126 269h317l88 460z" />
<glyph unicode="&#xbf;" horiz-adv-x="1210" d="M131 29q21 111 79.5 186t222.5 203q93 72 149.5 150.5t71.5 157.5h152q-20 -107 -97 -214q-75 -107 -198 -202q-130 -101 -171.5 -152.5t-56.5 -128.5q-22 -121 58 -214t208 -93q142 0 243 89.5t152 263.5h147q-40 -214 -204.5 -355t-374.5 -141q-183 0 -298.5 137 t-82.5 313zM672 862l49 258h150l-49 -258h-150z" />
<glyph unicode="&#xc0;" horiz-adv-x="1516" d="M25 0l937 1515h83h83l362 -1515h-84h-84l-118 512h-701l-311 -512h-83h-84zM586 649h588l-162 698zM841 1820l86 124l365 -219l-85 -122z" />
<glyph unicode="&#xc1;" horiz-adv-x="1516" d="M25 0l937 1515h83h83l362 -1515h-84h-84l-118 512h-701l-311 -512h-83h-84zM586 649h588l-162 698zM896 1721l447 221l45 -120l-447 -219z" />
<glyph unicode="&#xc2;" horiz-adv-x="1516" d="M25 0l937 1515h83h83l362 -1515h-84h-84l-118 512h-701l-311 -512h-83h-84zM586 649h588l-162 698zM705 1641l348 258h66h66l250 -258h-187l-149 153l-204 -153h-190z" />
<glyph unicode="&#xc3;" horiz-adv-x="1516" d="M25 0l937 1515h83h83l362 -1515h-84h-84l-118 512h-701l-311 -512h-83h-84zM586 649h588l-162 698zM744 1789q36 38 99.5 64t120.5 26q41 0 83 -11.5t86 -34.5q37 -19 62 -27.5t54 -10.5q20 -2 62 14t80 40l53 -100q-47 -34 -111 -58q-62 -23 -107 -23q-36 0 -74 11.5 t-95 39.5q-27 14 -59 23.5t-50 9.5q-35 0 -80 -19q-43 -18 -71 -44z" />
<glyph unicode="&#xc4;" horiz-adv-x="1516" d="M25 0l937 1515h83h83l362 -1515h-84h-84l-118 512h-701l-311 -512h-83h-84zM586 649h588l-162 698zM842 1642l49 258h150l-49 -258h-150zM1149 1642l49 258h150l-49 -258h-150z" />
<glyph unicode="&#xc5;" horiz-adv-x="1516" d="M25 0l937 1515h83h83l362 -1515h-84h-84l-118 512h-701l-311 -512h-83h-84zM586 649h588l-162 698zM878 1742q17 89 89.5 150.5t161.5 61.5t139 -61.5t33 -150.5t-89.5 -150t-161.5 -61t-139 61t-33 150zM983 1742q-9 -45 16.5 -75.5t70.5 -30.5t81 30.5t45 75.5 q8 45 -17 76t-70 31t-81.5 -31t-44.5 -76z" />
<glyph unicode="&#xc6;" horiz-adv-x="2032" d="M-40 0l1330 1515h202h646l-12 -68l-14 -69h-646l-104 -545h626l-13 -68l-13 -69h-626l-106 -559h651l-13 -68l-13 -69h-651h-152l97 512h-560l-442 -512h-93h-94zM709 649h466l132 689z" />
<glyph unicode="&#xc7;" horiz-adv-x="1665" d="M215 620q0 361 292 641t668 280q212 0 384.5 -118t222.5 -297h-169q-52 124 -185 202.5t-291 78.5q-294 0 -529.5 -233.5t-236.5 -525.5q0 -231 152 -385.5t379 -154.5q154 0 316.5 80.5t264.5 208.5h169q-121 -183 -342 -303q-218 -120 -432 -120q-288 0 -475.5 182.5 t-187.5 463.5zM622 -307l88 9q4 -39 24.5 -60t54.5 -21q41 0 71 26.5t39 70.5q8 43 -13 74.5t-58 31.5q-27 0 -57.5 -13.5t-42.5 -30.5l-70 37l117 183h86l-75 -120q42 15 73 16q65 0 101.5 -53.5t22.5 -128.5q-13 -66 -75.5 -117t-131.5 -51q-72 0 -112 38t-42 109z" />
<glyph unicode="&#xc8;" horiz-adv-x="1098" d="M143 0l288 1515h825l-12 -68l-14 -69h-673l-104 -545h648l-13 -68l-13 -69h-648l-106 -559h673l-13 -68l-13 -69h-825zM653 1820l86 124l365 -219l-85 -122z" />
<glyph unicode="&#xc9;" horiz-adv-x="1098" d="M143 0l288 1515h825l-12 -68l-14 -69h-673l-104 -545h648l-13 -68l-13 -69h-648l-106 -559h673l-13 -68l-13 -69h-825zM648 1721l447 221l45 -120l-447 -219z" />
<glyph unicode="&#xca;" horiz-adv-x="1098" d="M143 0l288 1515h825l-12 -68l-14 -69h-673l-104 -545h648l-13 -68l-13 -69h-648l-106 -559h673l-13 -68l-13 -69h-825zM487 1641l348 258h66h66l250 -258h-187l-149 153l-204 -153h-190z" />
<glyph unicode="&#xcb;" horiz-adv-x="1098" d="M143 0l288 1515h825l-12 -68l-14 -69h-673l-104 -545h648l-13 -68l-13 -69h-648l-106 -559h673l-13 -68l-13 -69h-825zM624 1642l49 258h150l-49 -258h-150zM931 1642l49 258h150l-49 -258h-150z" />
<glyph unicode="&#xcc;" horiz-adv-x="463" d="M156 0l288 1515h76h76l-288 -1515h-76h-76zM316 1820l86 124l365 -219l-85 -122z" />
<glyph unicode="&#xcd;" horiz-adv-x="463" d="M156 0l288 1515h76h76l-288 -1515h-76h-76zM371 1721l447 221l45 -120l-447 -219z" />
<glyph unicode="&#xce;" horiz-adv-x="463" d="M156 0l288 1515h76h76l-288 -1515h-76h-76zM180 1641l348 258h66h66l250 -258h-187l-149 153l-204 -153h-190z" />
<glyph unicode="&#xcf;" horiz-adv-x="463" d="M156 0l288 1515h76h76l-288 -1515h-76h-76zM317 1642l49 258h150l-49 -258h-150zM624 1642l49 258h150l-49 -258h-150z" />
<glyph unicode="&#xd0;" horiz-adv-x="1618" d="M213 689l26 137h164l131 689h76h389q291 0 454.5 -150t163.5 -417q0 -48 -5.5 -103.5t-15.5 -107.5q-66 -348 -296.5 -542.5t-576.5 -194.5h-401h-76l131 689h-164zM423 134h262q320 0 510 151t247 453q10 50 15 99t5 93q0 222 -134.5 336.5t-395.5 114.5h-271l-106 -555 h344l-26 -137h-344z" />
<glyph unicode="&#xd1;" horiz-adv-x="1516" d="M154 0l288 1515h102h103l610 -1265l241 1265h74h74l-288 -1515h-74h-75l-650 1348l-257 -1348h-74h-74zM743 1789q36 38 99.5 64t120.5 26q41 0 83 -11.5t86 -34.5q37 -19 62 -27.5t54 -10.5q20 -2 62 14t80 40l53 -100q-47 -34 -111 -58q-62 -23 -107 -23 q-36 0 -74 11.5t-95 39.5q-27 14 -59 23.5t-50 9.5q-35 0 -80 -19q-43 -18 -71 -44z" />
<glyph unicode="&#xd2;" horiz-adv-x="1780" d="M215 621q0 361 293 640.5t671 279.5q290 0 478 -182.5t188 -464.5q0 -361 -292.5 -640.5t-670.5 -279.5q-290 0 -478.5 182.5t-188.5 464.5zM371 640q-1 -232 150 -382t385 -150q309 0 546.5 232t236.5 535q1 232 -150 382t-385 150q-309 0 -546.5 -232t-236.5 -535z M970 1820l86 124l365 -219l-85 -122z" />
<glyph unicode="&#xd3;" horiz-adv-x="1780" d="M215 621q0 361 293 640.5t671 279.5q290 0 478 -182.5t188 -464.5q0 -361 -292.5 -640.5t-670.5 -279.5q-290 0 -478.5 182.5t-188.5 464.5zM371 640q-1 -232 150 -382t385 -150q309 0 546.5 232t236.5 535q1 232 -150 382t-385 150q-309 0 -546.5 -232t-236.5 -535z M1025 1721l447 221l45 -120l-447 -219z" />
<glyph unicode="&#xd4;" horiz-adv-x="1780" d="M215 621q0 361 293 640.5t671 279.5q290 0 478 -182.5t188 -464.5q0 -361 -292.5 -640.5t-670.5 -279.5q-290 0 -478.5 182.5t-188.5 464.5zM371 640q-1 -232 150 -382t385 -150q309 0 546.5 232t236.5 535q1 232 -150 382t-385 150q-309 0 -546.5 -232t-236.5 -535z M834 1641l348 258h66h66l250 -258h-187l-149 153l-204 -153h-190z" />
<glyph unicode="&#xd5;" horiz-adv-x="1780" d="M215 621q0 361 293 640.5t671 279.5q290 0 478 -182.5t188 -464.5q0 -361 -292.5 -640.5t-670.5 -279.5q-290 0 -478.5 182.5t-188.5 464.5zM371 640q-1 -232 150 -382t385 -150q309 0 546.5 232t236.5 535q1 232 -150 382t-385 150q-309 0 -546.5 -232t-236.5 -535z M873 1789q36 38 99.5 64t120.5 26q41 0 83 -11.5t86 -34.5q37 -19 62 -27.5t54 -10.5q20 -2 62 14t80 40l53 -100q-47 -34 -111 -58q-62 -23 -107 -23q-36 0 -74 11.5t-95 39.5q-27 14 -59 23.5t-50 9.5q-35 0 -80 -19q-43 -18 -71 -44z" />
<glyph unicode="&#xd6;" horiz-adv-x="1780" d="M215 621q0 361 293 640.5t671 279.5q290 0 478 -182.5t188 -464.5q0 -361 -292.5 -640.5t-670.5 -279.5q-290 0 -478.5 182.5t-188.5 464.5zM371 640q-1 -232 150 -382t385 -150q309 0 546.5 232t236.5 535q1 232 -150 382t-385 150q-309 0 -546.5 -232t-236.5 -535z M971 1642l49 258h150l-49 -258h-150zM1278 1642l49 258h150l-49 -258h-150z" />
<glyph unicode="&#xd7;" horiz-adv-x="1241" d="M178 150l439 368l-298 368l117 99l298 -369l438 369l81 -99l-440 -368l299 -368l-118 -99l-297 369l-439 -369z" />
<glyph unicode="&#xd8;" horiz-adv-x="1778" d="M156 89l215 171q-99 155 -100 361q0 361 293 640.5t671 279.5q290 0 479 -183l14 -14l213 171l75 -89l-215 -172q100 -153 100 -360q0 -361 -292.5 -640.5t-670.5 -279.5q-290 0 -480 183l-14 14l-213 -171zM427 640q-1 -159 69 -279l607 484l501 401l-10 11 q-150 150 -384 150q-309 0 -546.5 -232t-236.5 -535zM567 269l11 -11q150 -150 384 -150q309 0 546.5 232t236.5 535q1 158 -70 279l-606 -484z" />
<glyph unicode="&#xd9;" horiz-adv-x="1341" d="M242 403v8q0 72 16 155l181 949h76h76l-180 -948q-14 -73 -14 -136q0 -116 49 -197q75 -123 243 -123q178 0 293 116.5t158 339.5l180 948h74h74l-181 -949q-54 -284 -217 -438q-161 -154 -408 -154q-236 0 -347 160q-73 109 -73 269zM751 1820l86 124l365 -219l-85 -122 z" />
<glyph unicode="&#xda;" horiz-adv-x="1341" d="M242 403v8q0 72 16 155l181 949h76h76l-180 -948q-14 -73 -14 -136q0 -116 49 -197q75 -123 243 -123q178 0 293 116.5t158 339.5l180 948h74h74l-181 -949q-54 -284 -217 -438q-161 -154 -408 -154q-236 0 -347 160q-73 109 -73 269zM806 1721l447 221l45 -120 l-447 -219z" />
<glyph unicode="&#xdb;" horiz-adv-x="1341" d="M242 403v8q0 72 16 155l181 949h76h76l-180 -948q-14 -73 -14 -136q0 -116 49 -197q75 -123 243 -123q178 0 293 116.5t158 339.5l180 948h74h74l-181 -949q-54 -284 -217 -438q-161 -154 -408 -154q-236 0 -347 160q-73 109 -73 269zM615 1641l348 258h66h66l250 -258 h-187l-149 153l-204 -153h-190z" />
<glyph unicode="&#xdc;" horiz-adv-x="1341" d="M242 403v8q0 72 16 155l181 949h76h76l-180 -948q-14 -73 -14 -136q0 -116 49 -197q75 -123 243 -123q178 0 293 116.5t158 339.5l180 948h74h74l-181 -949q-54 -284 -217 -438q-161 -154 -408 -154q-236 0 -347 160q-73 109 -73 269zM752 1642l49 258h150l-49 -258h-150 zM1059 1642l49 258h150l-49 -258h-150z" />
<glyph unicode="&#xdd;" horiz-adv-x="1212" d="M283 1515h82h83l277 -859l601 859h84h84l-723 -1021l-94 -494h-76h-76l98 518zM739 1721l447 221l45 -120l-447 -219z" />
<glyph unicode="&#xde;" horiz-adv-x="1212" d="M123 0l288 1515h76h76l-57 -304l278 1q233 0 361 -94t128 -266q0 -254 -178.5 -401.5t-484.5 -147.5l-278 1l-57 -304h-76h-76zM359 441h282q224 0 353 102q129 101 130 278q0 121 -94.5 187t-268.5 66h-282z" />
<glyph unicode="&#xdf;" horiz-adv-x="1135" d="M125 0l189 992l4 25q31 239 171 381.5t346 142.5q185 0 281.5 -118.5t61.5 -303.5q-36 -187 -185 -288q-30 -21 -64 -36q79 -27 130 -67q138 -109 96 -327q-35 -183 -176.5 -305t-319.5 -122q-194 0 -285 119t-50 321h128q-13 -146 45.5 -229.5t176.5 -83.5q114 0 213 85 t122 203q32 169 -68 244t-349 67l26 137q178 3 284.5 77t132.5 213q24 123 -39.5 205t-182.5 82q-141 0 -235 -113q-95 -112 -120 -309l-189 -992h-72h-72z" />
<glyph unicode="&#xe0;" horiz-adv-x="1399" d="M180 457q0 268 213.5 480t483.5 212q248 0 380 -168q21 -28 39 -58l37 197h144l-213 -1120h-72h-72l37 194q-27 -29 -59 -56q-191 -164 -444 -164q-205 0 -339.5 137t-134.5 346zM323 467q-1 -160 104 -265t266 -105q193 0 346 132t191 331q10 51 10 97q0 132 -78 231 q-104 134 -293 134q-213 0 -379.5 -169.5t-166.5 -385.5zM729 1485l86 124l365 -219l-85 -122z" />
<glyph unicode="&#xe1;" horiz-adv-x="1399" d="M180 457q0 268 213.5 480t483.5 212q248 0 380 -168q21 -28 39 -58l37 197h144l-213 -1120h-72h-72l37 194q-27 -29 -59 -56q-191 -164 -444 -164q-205 0 -339.5 137t-134.5 346zM323 467q-1 -160 104 -265t266 -105q193 0 346 132t191 331q10 51 10 97q0 132 -78 231 q-104 134 -293 134q-213 0 -379.5 -169.5t-166.5 -385.5zM784 1386l447 221l45 -120l-447 -219z" />
<glyph unicode="&#xe2;" horiz-adv-x="1399" d="M180 457q0 268 213.5 480t483.5 212q248 0 380 -168q21 -28 39 -58l37 197h144l-213 -1120h-72h-72l37 194q-27 -29 -59 -56q-191 -164 -444 -164q-205 0 -339.5 137t-134.5 346zM323 467q-1 -160 104 -265t266 -105q193 0 346 132t191 331q10 51 10 97q0 132 -78 231 q-104 134 -293 134q-213 0 -379.5 -169.5t-166.5 -385.5zM593 1306l348 258h66h66l250 -258h-187l-149 153l-204 -153h-190z" />
<glyph unicode="&#xe3;" horiz-adv-x="1399" d="M180 457q0 268 213.5 480t483.5 212q248 0 380 -168q21 -28 39 -58l37 197h144l-213 -1120h-72h-72l37 194q-27 -29 -59 -56q-191 -164 -444 -164q-205 0 -339.5 137t-134.5 346zM323 467q-1 -160 104 -265t266 -105q193 0 346 132t191 331q10 51 10 97q0 132 -78 231 q-104 134 -293 134q-213 0 -379.5 -169.5t-166.5 -385.5zM632 1454q36 38 99.5 64t120.5 26q41 0 83 -11.5t86 -34.5q37 -19 62 -27.5t54 -10.5q20 -2 62 14t80 40l53 -100q-47 -34 -111 -58q-62 -23 -107 -23q-36 0 -74 11.5t-95 39.5q-27 14 -59 23.5t-50 9.5 q-35 0 -80 -19q-43 -18 -71 -44z" />
<glyph unicode="&#xe4;" horiz-adv-x="1399" d="M180 457q0 268 213.5 480t483.5 212q248 0 380 -168q21 -28 39 -58l37 197h144l-213 -1120h-72h-72l37 194q-27 -29 -59 -56q-191 -164 -444 -164q-205 0 -339.5 137t-134.5 346zM323 467q-1 -160 104 -265t266 -105q193 0 346 132t191 331q10 51 10 97q0 132 -78 231 q-104 134 -293 134q-213 0 -379.5 -169.5t-166.5 -385.5zM730 1307l49 258h150l-49 -258h-150zM1037 1307l49 258h150l-49 -258h-150z" />
<glyph unicode="&#xe5;" horiz-adv-x="1399" d="M180 457q0 268 213.5 480t483.5 212q248 0 380 -168q21 -28 39 -58l37 197h144l-213 -1120h-72h-72l37 194q-27 -29 -59 -56q-191 -164 -444 -164q-205 0 -339.5 137t-134.5 346zM323 467q-1 -160 104 -265t266 -105q193 0 346 132t191 331q10 51 10 97q0 132 -78 231 q-104 134 -293 134q-213 0 -379.5 -169.5t-166.5 -385.5zM756 1441q17 89 90 150.5t162 61.5t138.5 -61.5t32.5 -150.5t-89.5 -150t-161.5 -61t-139 61t-33 150zM861 1441q-8 -45 16.5 -75.5t69.5 -30.5t82 30.5t45 75.5q9 45 -16 76t-70 31t-81.5 -31t-45.5 -76z" />
<glyph unicode="&#xe6;" horiz-adv-x="2370" d="M164 457q0 268 214 480q215 212 487 212q244 0 379 -171q24 -31 43 -64l39 206h144l-36 -190l8 8q216 211 480 211q205 0 338.5 -137t134.5 -346q0 -81 -20 -158h-1015v-51q-1 -159 97 -257.5t255 -98.5q144 0 268.5 72.5t183.5 190.5h149q-103 -186 -262.5 -288 t-351.5 -102q-198 0 -336 143q-38 40 -67 86l-39 -203h-72h-72l39 206q-30 -32 -66 -63q-198 -169 -445 -169q-206 0 -341.5 137t-135.5 346zM307 469q-1 -160 105.5 -265t269.5 -105q195 0 349.5 131.5t192.5 330.5q37 194 -69.5 327.5t-296.5 133.5q-214 0 -382.5 -169 t-168.5 -384zM1385 634h867l-1 21q1 159 -101 263t-257 104q-215 0 -374 -169q-92 -98 -134 -219z" />
<glyph unicode="&#xe7;" horiz-adv-x="1325" d="M396 939q217 210 501 210q187 0 315.5 -95.5t177.5 -269.5h-157q-49 116 -141 177t-217 61q-211 0 -381.5 -171t-170.5 -383q0 -161 108 -264t278 -103q134 0 254.5 63t182.5 165h157q-112 -170 -274 -263q-159 -92 -343 -92q-219 0 -364 136q-144 135 -144 341 q0 277 218 488zM455 -307l88 9q4 -39 24.5 -60t54.5 -21q41 0 71 26.5t39 70.5q8 43 -13 74.5t-58 31.5q-27 0 -57.5 -13.5t-42.5 -30.5l-70 37l117 183h86l-75 -120q42 15 73 16q65 0 101.5 -53.5t22.5 -128.5q-13 -66 -75.5 -117t-131.5 -51q-72 0 -112 38t-42 109z" />
<glyph unicode="&#xe8;" horiz-adv-x="1331" d="M172 459q0 273 214.5 481.5t493.5 208.5q209 0 346 -137.5t137 -347.5v-8q0 -76 -19 -148h-1028l-1 -41q-1 -159 101 -262.5t258 -103.5q143 0 267 72.5t183 190.5h157q-103 -186 -265.5 -288t-358.5 -102q-209 0 -347 137.5t-138 347.5zM339 634h880l1 20 q1 159 -103 263.5t-262 104.5q-213 0 -377 -169q-96 -99 -139 -219zM704 1485l86 124l365 -219l-85 -122z" />
<glyph unicode="&#xe9;" horiz-adv-x="1331" d="M172 459q0 273 214.5 481.5t493.5 208.5q209 0 346 -137.5t137 -347.5v-8q0 -76 -19 -148h-1028l-1 -41q-1 -159 101 -262.5t258 -103.5q143 0 267 72.5t183 190.5h157q-103 -186 -265.5 -288t-358.5 -102q-209 0 -347 137.5t-138 347.5zM339 634h880l1 20 q1 159 -103 263.5t-262 104.5q-213 0 -377 -169q-96 -99 -139 -219zM759 1386l447 221l45 -120l-447 -219z" />
<glyph unicode="&#xea;" horiz-adv-x="1331" d="M172 459q0 273 214.5 481.5t493.5 208.5q209 0 346 -137.5t137 -347.5v-8q0 -76 -19 -148h-1028l-1 -41q-1 -159 101 -262.5t258 -103.5q143 0 267 72.5t183 190.5h157q-103 -186 -265.5 -288t-358.5 -102q-209 0 -347 137.5t-138 347.5zM339 634h880l1 20 q1 159 -103 263.5t-262 104.5q-213 0 -377 -169q-96 -99 -139 -219zM568 1306l348 258h66h66l250 -258h-187l-149 153l-204 -153h-190z" />
<glyph unicode="&#xeb;" horiz-adv-x="1331" d="M172 459q0 273 214.5 481.5t493.5 208.5q209 0 346 -137.5t137 -347.5v-8q0 -76 -19 -148h-1028l-1 -41q-1 -159 101 -262.5t258 -103.5q143 0 267 72.5t183 190.5h157q-103 -186 -265.5 -288t-358.5 -102q-209 0 -347 137.5t-138 347.5zM339 634h880l1 20 q1 159 -103 263.5t-262 104.5q-213 0 -377 -169q-96 -99 -139 -219zM705 1307l49 258h150l-49 -258h-150zM1012 1307l49 258h150l-49 -258h-150z" />
<glyph unicode="&#xec;" horiz-adv-x="410" d="M133 0l213 1120h72h72l-213 -1120h-72h-72zM225 1485l86 124l365 -219l-85 -122z" />
<glyph unicode="&#xed;" horiz-adv-x="410" d="M133 0l213 1120h72h72l-213 -1120h-72h-72zM280 1386l447 221l45 -120l-447 -219z" />
<glyph unicode="&#xee;" horiz-adv-x="410" d="M128 0l213 1120h72h72l-213 -1120h-72h-72zM84 1306l348 258h66h66l250 -258h-187l-149 153l-204 -153h-190z" />
<glyph unicode="&#xef;" horiz-adv-x="410" d="M133 0l213 1120h72h72l-213 -1120h-72h-72zM226 1307l49 258h150l-49 -258h-150zM533 1307l49 258h150l-49 -258h-150z" />
<glyph unicode="&#xf0;" horiz-adv-x="1341" d="M180 457q0 264 217.5 475.5t490.5 211.5q178 0 288 -117q-20 38 -48 72q-90 117 -225 209l-333 -118l-93 77l312 111q-92 51 -201 92l175 70q112 -43 203 -99l289 102l96 -76l-281 -100q119 -90 195 -211q122 -187 121 -400q0 -76 -15 -155q-53 -276 -249.5 -451.5 t-455.5 -175.5q-210 0 -348 137t-138 346zM323 466q0 -158 103.5 -261.5t262.5 -103.5q212 0 376 168t164 385q1 159 -102 261t-264 102q-218 0 -379 -165q-160 -164 -161 -386z" />
<glyph unicode="&#xf1;" horiz-adv-x="1249" d="M133 0l213 1120h72h72l-26 -135l29 26q154 138 343 138q227 1 335 -145q76 -102 76 -253q0 -64 -14 -136l-117 -615h-72h-72l117 616q11 59 11 111q0 110 -50 184q-74 109 -238 109q-146 0 -263 -101.5t-145 -252.5l-127 -666h-72h-72zM547 1454q36 38 99.5 64t120.5 26 q41 0 83 -11.5t86 -34.5q37 -19 62 -27.5t54 -10.5q20 -2 62 14t80 40l53 -100q-47 -34 -111 -58q-62 -23 -107 -23q-36 0 -74 11.5t-95 39.5q-27 14 -59 23.5t-50 9.5q-35 0 -80 -19q-43 -18 -71 -44z" />
<glyph unicode="&#xf2;" horiz-adv-x="1341" d="M180 458q0 273 214 482t493 209q209 0 346 -137.5t137 -347.5q0 -273 -215 -482q-212 -208 -491 -208q-209 0 -346.5 137.5t-137.5 346.5zM323 468q-1 -159 102.5 -263t261.5 -104q212 0 376 168t164 385q1 159 -103 263.5t-262 104.5q-212 0 -375.5 -168t-163.5 -386z M688 1485l86 124l365 -219l-85 -122z" />
<glyph unicode="&#xf3;" horiz-adv-x="1341" d="M180 458q0 273 214 482t493 209q209 0 346 -137.5t137 -347.5q0 -273 -215 -482q-212 -208 -491 -208q-209 0 -346.5 137.5t-137.5 346.5zM323 468q-1 -159 102.5 -263t261.5 -104q212 0 376 168t164 385q1 159 -103 263.5t-262 104.5q-212 0 -375.5 -168t-163.5 -386z M743 1386l447 221l45 -120l-447 -219z" />
<glyph unicode="&#xf4;" horiz-adv-x="1341" d="M180 458q0 273 214 482t493 209q209 0 346 -137.5t137 -347.5q0 -273 -215 -482q-212 -208 -491 -208q-209 0 -346.5 137.5t-137.5 346.5zM323 468q-1 -159 102.5 -263t261.5 -104q212 0 376 168t164 385q1 159 -103 263.5t-262 104.5q-212 0 -375.5 -168t-163.5 -386z M552 1306l348 258h66h66l250 -258h-187l-149 153l-204 -153h-190z" />
<glyph unicode="&#xf5;" horiz-adv-x="1341" d="M180 458q0 273 214 482t493 209q209 0 346 -137.5t137 -347.5q0 -273 -215 -482q-212 -208 -491 -208q-209 0 -346.5 137.5t-137.5 346.5zM323 468q-1 -159 102.5 -263t261.5 -104q212 0 376 168t164 385q1 159 -103 263.5t-262 104.5q-212 0 -375.5 -168t-163.5 -386z M591 1454q36 38 99.5 64t120.5 26q41 0 83 -11.5t86 -34.5q37 -19 62 -27.5t54 -10.5q20 -2 62 14t80 40l53 -100q-47 -34 -111 -58q-62 -23 -107 -23q-36 0 -74 11.5t-95 39.5q-27 14 -59 23.5t-50 9.5q-35 0 -80 -19q-43 -18 -71 -44z" />
<glyph unicode="&#xf6;" horiz-adv-x="1341" d="M180 458q0 273 214 482t493 209q209 0 346 -137.5t137 -347.5q0 -273 -215 -482q-212 -208 -491 -208q-209 0 -346.5 137.5t-137.5 346.5zM323 468q-1 -159 102.5 -263t261.5 -104q212 0 376 168t164 385q1 159 -103 263.5t-262 104.5q-212 0 -375.5 -168t-163.5 -386z M689 1307l49 258h150l-49 -258h-150zM996 1307l49 258h150l-49 -258h-150z" />
<glyph unicode="&#xf7;" horiz-adv-x="1241" d="M188 448l27 141h1038l-27 -141h-1038zM541 -28l49 262h152l-49 -262h-152zM699 803l50 262h152l-50 -262h-152z" />
<glyph unicode="&#xf8;" horiz-adv-x="1337" d="M104 -54l183 194q-107 131 -108 318q0 273 214 482t493 209q162 0 281 -83l178 188l98 -80l-182 -192q108 -131 108 -318q0 -273 -215 -482q-212 -208 -491 -208q-161 -1 -281 82l-179 -190zM322 468q1 -127 65 -223l408 430l273 288q-86 59 -207 59q-212 0 -375.5 -168 t-163.5 -386zM481 159q86 -58 205 -58q212 0 376 168t164 385q0 128 -65 222l-410 -431z" />
<glyph unicode="&#xf9;" horiz-adv-x="1245" d="M205 350q0 72 16 156l117 614h72h72l-117 -616q-14 -72 -14 -131q0 -105 44 -169q69 -100 245 -101q145 0 261.5 101t144.5 252l127 664h72h72l-213 -1120h-68h-69l28 150q-17 -19 -38 -38q-151 -138 -339 -138q-242 0 -345 137q-68 93 -68 239zM634 1485l86 124 l365 -219l-85 -122z" />
<glyph unicode="&#xfa;" horiz-adv-x="1245" d="M205 350q0 72 16 156l117 614h72h72l-117 -616q-14 -72 -14 -131q0 -105 44 -169q69 -100 245 -101q145 0 261.5 101t144.5 252l127 664h72h72l-213 -1120h-68h-69l28 150q-17 -19 -38 -38q-151 -138 -339 -138q-242 0 -345 137q-68 93 -68 239zM689 1386l447 221 l45 -120l-447 -219z" />
<glyph unicode="&#xfb;" horiz-adv-x="1245" d="M205 350q0 72 16 156l117 614h72h72l-117 -616q-14 -72 -14 -131q0 -105 44 -169q69 -100 245 -101q145 0 261.5 101t144.5 252l127 664h72h72l-213 -1120h-68h-69l28 150q-17 -19 -38 -38q-151 -138 -339 -138q-242 0 -345 137q-68 93 -68 239zM498 1306l348 258h66h66 l250 -258h-187l-149 153l-204 -153h-190z" />
<glyph unicode="&#xfc;" horiz-adv-x="1245" d="M205 350q0 72 16 156l117 614h72h72l-117 -616q-14 -72 -14 -131q0 -105 44 -169q69 -100 245 -101q145 0 261.5 101t144.5 252l127 664h72h72l-213 -1120h-68h-69l28 150q-17 -19 -38 -38q-151 -138 -339 -138q-242 0 -345 137q-68 93 -68 239zM635 1307l49 258h150 l-49 -258h-150zM942 1307l49 258h150l-49 -258h-150z" />
<glyph unicode="&#xfd;" horiz-adv-x="1098" d="M199 -392l275 430l-237 1082h74h75l195 -903l544 903h78h78l-930 -1512h-76h-76zM621 1386l447 221l45 -120l-447 -219z" />
<glyph unicode="&#xfe;" horiz-adv-x="1397" d="M57 -394l363 1909h72h72l-112 -590l61 57q196 167 443 167q204 0 337.5 -137t134.5 -346q-1 -268 -214 -480q-211 -212 -481 -212q-246 0 -379 168l-40 58l-113 -594h-72h-72zM379 564q-37 -194 67 -328.5t292 -134.5q213 0 379.5 169.5t167.5 385.5q0 160 -105 265 t-266 105q-188 0 -343 -134t-192 -328z" />
<glyph unicode="&#xff;" horiz-adv-x="1098" d="M199 -392l275 430l-237 1082h74h75l195 -903l544 903h78h78l-930 -1512h-76h-76zM567 1307l49 258h150l-49 -258h-150zM874 1307l49 258h150l-49 -258h-150z" />
<glyph unicode="&#x131;" horiz-adv-x="410" d="M133 0l213 1120h72h72l-213 -1120h-72h-72z" />
<glyph unicode="&#x152;" horiz-adv-x="2445" d="M219 620q0 362 291 643q292 281 668 281q292 0 477 -179q70 -67 112 -149l57 299h152h644l-12 -68l-14 -69h-644l-104 -545h624l-13 -68l-13 -69h-624l-106 -559h649l-13 -68l-13 -69h-649h-152l57 304q-20 -24 -46 -48q-290 -282 -667 -282q-287 0 -474 182.5 t-187 463.5zM375 640q-1 -232 149.5 -381.5t383.5 -149.5q301 0 541.5 234t239.5 527q1 232 -151 385t-382 153q-308 0 -545 -232.5t-236 -535.5z" />
<glyph unicode="&#x153;" horiz-adv-x="2329" d="M164 458q0 273 214 482t492 209q204 0 343 -142q71 -73 106 -163q37 46 83 92q220 213 489 213q209 0 346 -137.5t137 -347.5q1 -80 -19 -156h-1027v-40q-1 -159 102 -263t259 -104q142 0 264.5 72.5t181.5 190.5h157q-103 -186 -265.5 -288t-358.5 -102q-208 0 -348 139 q-71 72 -105 162q-39 -46 -83 -90q-217 -211 -485 -211q-209 0 -346 137.5t-137 346.5zM307 468q-1 -159 102.5 -263t260.5 -104q212 0 375.5 168t163.5 385q1 159 -102 264q-104 104 -262 104q-211 0 -374.5 -168t-163.5 -386zM1359 634h876l1 20q1 159 -103.5 263.5 t-263.5 104.5q-191 0 -366 -179q-98 -101 -144 -209z" />
<glyph unicode="&#x178;" horiz-adv-x="1212" d="M283 1515h82h83l277 -859l601 859h84h84l-723 -1021l-94 -494h-76h-76l98 518zM685 1642l49 258h150l-49 -258h-150zM992 1642l49 258h150l-49 -258h-150z" />
<glyph unicode="&#x2c6;" horiz-adv-x="1028" d="M393 1306l348 258h66h66l250 -258h-187l-149 153l-204 -153h-190z" />
<glyph unicode="&#x2dc;" horiz-adv-x="899" d="M367 1454q36 38 99.5 64t120.5 26q41 0 83 -11.5t86 -34.5q37 -19 62 -27.5t54 -10.5q21 -2 62.5 14t79.5 40l53 -100q-47 -34 -111 -58q-62 -23 -107 -23q-36 0 -74 11.5t-94 39.5q-28 14 -60 23.5t-50 9.5q-35 0 -80 -19q-43 -18 -71 -44z" />
<glyph unicode="&#x2013;" horiz-adv-x="1024" d="M166 505l27 143h880l-27 -143h-880z" />
<glyph unicode="&#x2014;" horiz-adv-x="2048" d="M166 505l27 143h1904l-27 -143h-1904z" />
<glyph unicode="&#x2018;" horiz-adv-x="719" d="M475 1515h150l108 -397h-153z" />
<glyph unicode="&#x2019;" horiz-adv-x="719" d="M399 1118l255 397h149l-253 -397h-151z" />
<glyph unicode="&#x201a;" horiz-adv-x="725" d="M156 -139l255 397h149l-253 -397h-151z" />
<glyph unicode="&#x201c;" horiz-adv-x="1028" d="M479 1515h149l106 -397h-151zM782 1515h149l106 -397h-151z" />
<glyph unicode="&#x201d;" horiz-adv-x="991" d="M403 1118l255 397h149l-253 -397h-151zM706 1118l255 397h149l-253 -397h-151z" />
<glyph unicode="&#x201e;" horiz-adv-x="1028" d="M156 -139l255 397h149l-253 -397h-151zM459 -139l255 397h149l-253 -397h-151z" />
<glyph unicode="&#x2022;" horiz-adv-x="1241" d="M444 770q26 134 134 226t239 92t204 -92t47 -226q-25 -134 -134 -226q-107 -92 -238 -92t-204 92t-48 226z" />
<glyph unicode="&#x2026;" horiz-adv-x="2048" d="M266 0l49 258h150l-49 -258h-150zM948 0l49 258h150l-49 -258h-150zM1631 0l49 258h150l-49 -258h-150z" />
<glyph unicode="&#x2039;" horiz-adv-x="514" d="M188 575l312 411l106 -68l-260 -343l129 -343l-132 -68z" />
<glyph unicode="&#x203a;" horiz-adv-x="514" d="M123 232l259 343l-128 343l132 68l154 -411l-311 -411z" />
<glyph unicode="&#x20ac;" horiz-adv-x="1135" d="M115 551l56 137h107q8 72 21 138h-132l56 137h112q51 151 135 278q200 300 492 300q180 0 278 -111q86 -98 87 -260l-2 -44h-158q15 130 -46 205.5t-180 75.5q-214 0 -366 -262q-50 -85 -82 -182h508l-56 -137h-491q-13 -66 -21 -138h455l-56 -137h-407l-1 -38 q0 -189 68 -297t187 -108q114 0 209 74t138 197h157q-60 -187 -203 -296q-140 -109 -325 -109q-179 0 -282.5 141t-103.5 387l1 49h-155z" />
<glyph unicode="&#x2122;" horiz-adv-x="2048" d="M281 1417l9 49l9 49h546l-9 -49l-9 -49h-218l-155 -811h-54h-55l155 811h-219zM792 606l173 909h77h77l203 -747l478 747h80h81l-173 -909h-54h-55l148 774l-498 -774h-39h-39l-206 757l-144 -757h-54h-55z" />
<glyph unicode="&#x2215;" horiz-adv-x="340" d="M-230 0l962 1515h125l-962 -1515h-125z" />
<glyph unicode="&#xe000;" horiz-adv-x="1120" d="M0 1120h1120v-1120h-1120v1120z" />
<glyph unicode="&#xfb01;" horiz-adv-x="997" d="M213 0l188 990h-181l25 130h181l5 24q37 193 156 295t309 102h32l-25 -133l-24 1q-124 0 -201 -63.5t-100 -184.5l-8 -41h508l-213 -1120h-72h-72l188 990h-364l-188 -990h-72h-72zM961 1260l48 255h144l-48 -255h-144z" />
<glyph unicode="&#xfb02;" horiz-adv-x="1053" d="M776 0l288 1515h72h72l-288 -1515h-72h-72zM213 0l188 990h-181l25 130h181l5 24q37 193 156 295t309 102h32l-25 -133l-24 1q-124 0 -201 -63.5t-100 -184.5l-8 -41h278l-25 -130h-278l-188 -990h-72h-72z" />
<glyph unicode="&#xfb03;" horiz-adv-x="1696" d="M1419 0l213 1120h72h72l-213 -1120h-72h-72zM1659 1260l48 255h144l-48 -255h-144zM856 0l188 990h-181l25 130h181l5 24q37 193 156 295t309 102h32l-25 -133l-24 1q-124 0 -201 -63.5t-100 -184.5l-8 -41h278l-25 -130h-278l-188 -990h-72h-72zM213 0l188 990h-181 l25 130h181l5 24q37 193 156 295t309 102h32l-25 -133l-24 1q-124 0 -201 -63.5t-100 -184.5l-8 -41h278l-25 -130h-278l-188 -990h-72h-72z" />
<glyph unicode="&#xfb04;" horiz-adv-x="1696" d="M1419 0l288 1515h72h72l-288 -1515h-72h-72zM856 0l188 990h-181l25 130h181l5 24q37 193 156 295t309 102h32l-25 -133l-24 1q-124 0 -201 -63.5t-100 -184.5l-8 -41h278l-25 -130h-278l-188 -990h-72h-72zM213 0l188 990h-181l25 130h181l5 24q37 193 156 295t309 102 h32l-25 -133l-24 1q-124 0 -201 -63.5t-100 -184.5l-8 -41h278l-25 -130h-278l-188 -990h-72h-72z" />
<glyph d="M-640 756q62 329 333 556.5t600 227.5t513 -227.5t122 -556.5q-63 -329 -334 -557q-269 -227 -599 -227t-514 227.5t-121 556.5zM-528 756q-54 -282 104 -477t440 -195t514 195t286 477t-103.5 477t-440.5 195t-514.5 -195t-285.5 -477z" />
<glyph d="M-301 657q0 235 156.5 403t375.5 168q147 0 243.5 -89.5t96.5 -225.5h-119q-13 107 -69 158t-161 51q-178 0 -295 -132q-115 -131 -114 -334q-1 -123 76 -191.5t215 -68.5q86 0 162 55t125 153h126q-51 -134 -175.5 -222.5t-261.5 -88.5q-175 0 -278 98.5t-103 265.5z " />
<glyph d="M-640 756q62 329 333 556.5t600 227.5t513 -227.5t122 -556.5q-63 -329 -334 -557q-269 -227 -599 -227t-514 227.5t-121 556.5zM-528 756q-54 -282 104 -477t440 -195t514 195t286 477t-103.5 477t-440.5 195t-514.5 -195t-285.5 -477z" />
<glyph d="M-279 303l171 896h57h297q146 0 221 -48.5t75 -143.5q0 -142 -100 -216q-53 -40 -137 -59q76 -7 108 -51q41 -53 25 -174l-17 -136q-3 -29 -2.5 -44.5t4.5 -23.5h-58h-58q-3 12 -3 32.5t5 58.5l11 92q16 118 -21.5 157.5t-165.5 39.5h-225l-73 -380h-57h-57zM-73 783h241 q121 0 188 49t67 138q-1 61 -50.5 93.5t-144.5 32.5h-241z" />
<glyph horiz-adv-x="680" d="M389 1403l21 112h275l-173 -909h-61h-61l152 797h-153z" />
<glyph horiz-adv-x="680" d="M150 765l11 53l10 53l566 644h67h68l-122 -640h87l-21 -110h-87l-30 -159h-122l30 159h-457zM311 875h317l88 460z" />
<glyph horiz-adv-x="680" d="M389 1403l21 112h275l-173 -909h-61h-61l152 797h-153z" />
<glyph horiz-adv-x="680" d="M152 606l10 51l10 51l214 162q236 178 306 250q69 71 69 135q0 76 -41.5 119.5t-112.5 43.5q-85 0 -142.5 -59.5t-67.5 -158.5h-126q24 152 122.5 241t242.5 89q110 0 180 -70q70 -69 70 -179v-6q0 -105 -71 -185q-72 -82 -369 -306l-90 -68h430l-21 -110h-613z" />
<glyph horiz-adv-x="680" d="M193 910h124q-18 -87 26.5 -147t126.5 -60q85 0 147 62t62 147q1 70 -45 111.5t-123 41.5h-57l21 112h70q64 0 108 40q42 39 42 97q0 48 -28 76t-76 28q-54 0 -95.5 -42t-53.5 -109h-119q30 124 108 193.5t188 69.5q90 0 147.5 -55.5t57.5 -143.5q0 -101 -92 -186 l-24 -20q18 -10 33 -24q69 -62 69 -161v-3q1 -139 -109 -242.5t-258 -103.5q-139 0 -206 86t-44 233z" />
<glyph horiz-adv-x="680" d="M150 765l11 53l10 53l566 644h67h68l-122 -640h87l-21 -110h-87l-30 -159h-122l30 159h-457zM311 875h317l88 460z" />
<glyph d="M-229 179l86 124l365 -219l-85 -122z" />
<glyph d="M-174 80l447 221l45 -120l-447 -219z" />
<glyph d="M-365 0l348 258h66h66l250 -258h-187l-149 153l-204 -153h-190z" />
<glyph d="M-326 148q36 38 99.5 64t120.5 26q41 0 83 -11.5t86 -34.5q37 -19 62 -27.5t54 -10.5q20 -2 62 14t80 40l53 -100q-47 -34 -111 -58q-62 -23 -107 -23q-36 0 -74 11.5t-95 39.5q-27 14 -59 23.5t-50 9.5q-35 0 -80 -19q-43 -18 -71 -44z" />
<glyph d="M-228 1l49 258h150l-49 -258h-150zM79 1l49 258h150l-49 -258h-150z" />
<glyph d="M-192 101q17 89 89.5 150.5t161.5 61.5t139 -61.5t33 -150.5t-89.5 -150t-161.5 -61t-139 61t-33 150zM-87 101q-9 -45 16.5 -75.5t70.5 -30.5t81 30.5t45 75.5q8 45 -17 76t-70 31t-81.5 -31t-44.5 -76z" />
<glyph d="M-260 -307l88 9q4 -39 24.5 -60t54.5 -21q41 0 71 26.5t39 70.5q8 43 -13 74.5t-58 31.5q-27 0 -57.5 -13.5t-42.5 -30.5l-70 37l117 183h86l-75 -120q42 15 73 16q65 0 101.5 -53.5t22.5 -128.5q-13 -66 -75.5 -117t-131.5 -51q-72 0 -112 38t-42 109z" />
<glyph d="M-229 179l86 124l365 -219l-85 -122z" />
<glyph d="M-174 80l447 221l45 -120l-447 -219z" />
<glyph d="M-365 0l348 258h66h66l250 -258h-187l-149 153l-204 -153h-190z" />
<glyph d="M-326 148q36 38 99.5 64t120.5 26q41 0 83 -11.5t86 -34.5q37 -19 62 -27.5t54 -10.5q20 -2 62 14t80 40l53 -100q-47 -34 -111 -58q-62 -23 -107 -23q-36 0 -74 11.5t-95 39.5q-27 14 -59 23.5t-50 9.5q-35 0 -80 -19q-43 -18 -71 -44z" />
<glyph d="M-228 1l49 258h150l-49 -258h-150zM79 1l49 258h150l-49 -258h-150z" />
<glyph d="M-202 135q17 89 90 150.5t162 61.5t138.5 -61.5t32.5 -150.5t-89.5 -150t-161.5 -61t-139 61t-33 150zM-97 135q-8 -45 16.5 -75.5t69.5 -30.5t82 30.5t45 75.5q9 45 -16 76t-70 31t-81.5 -31t-45.5 -76z" />
<glyph d="M-235 -307l88 9q4 -39 24.5 -60t54.5 -21q41 0 71 26.5t39 70.5q8 43 -13 74.5t-58 31.5q-27 0 -57.5 -13.5t-42.5 -30.5l-70 37l117 183h86l-75 -120q42 15 73 16q65 0 101.5 -53.5t22.5 -128.5q-13 -66 -75.5 -117t-131.5 -51q-72 0 -112 38t-42 109z" />
<glyph d="M-3 1417l9 49l9 49h546l-9 -49l-9 -49h-218l-155 -811h-54h-55l155 811h-219z" />
<glyph d="M-383 606l173 909h77h77l203 -747l478 747h80h81l-173 -909h-54h-55l148 774l-498 -774h-39h-39l-206 757l-144 -757h-54h-55z" />
</font>
</defs>
</svg>
