<?xml version="1.0" standalone="no"?>
<!DOCTYPE svg PUBLIC "-//W3C//DTD SVG 1.1//EN" "http://www.w3.org/Graphics/SVG/1.1/DTD/svg11.dtd" >
<svg xmlns="http://www.w3.org/2000/svg">
<metadata>
This is a custom SVG webfont generated by Font Squirrel.
Copyright   : Copyright c 199297 HewlettPackard All rights reserved
</metadata>
<defs>
<font id="ITCAvantGardeGothicDemiOb" horiz-adv-x="1147" >
<font-face units-per-em="2048" ascent="1638" descent="-410" />
<missing-glyph horiz-adv-x="573" />
<glyph unicode=" "  horiz-adv-x="573" />
<glyph unicode="&#x09;" horiz-adv-x="573" />
<glyph unicode="&#xa0;" horiz-adv-x="573" />
<glyph unicode="!" horiz-adv-x="573" d="M150 0l48 262h274l-48 -262h-274zM224 383l216 1132h270l-216 -1132h-270z" />
<glyph unicode="&#x22;" horiz-adv-x="737" d="M260 909l63 606h272l-167 -606h-168zM646 909l63 606h272l-167 -606h-168z" />
<glyph unicode="#" d="M135 404l44 196h185l76 232h-165l44 196h185l131 404h206l-131 -404h186l131 404h206l-131 -404h165l-44 -196h-185l-75 -232h164l-44 -196h-184l-132 -405h-206l132 405h-186l-132 -405h-206l132 405h-166zM570 600h188l74 232h-187z" />
<glyph unicode="$" d="M203 415q0 46 11 94h269q-7 -74 37 -124.5t114 -50.5q80 0 141.5 54.5t77.5 140.5q12 62 -31 103q-43 40 -164 80q-173 56 -236 153q-43 66 -44 160q1 44 10 95q33 172 164 281q85 69 185 97l49 257h258l-50 -266q71 -26 118 -79q82 -89 81 -235l-1 -36h-257 q0 55 -30.5 89t-79.5 34q-62 0 -109 -40t-59 -102q-11 -60 22 -97q33 -36 129 -67q199 -64 273 -168q52 -73 52 -176q0 -44 -9 -93q-38 -194 -188 -318q-94 -77 -208 -105l-51 -272h-258l50 266q-112 28 -187 113q-78 92 -79 212z" />
<glyph unicode="%" horiz-adv-x="1761" d="M285 1101q0 184 131.5 315.5t316.5 131.5q139 0 223 -81t84 -214q-1 -184 -132.5 -315t-316.5 -131q-139 0 -223 80.5t-83 213.5zM457 -3l923 1521h206l-923 -1521h-206zM523 1146q0 -51 31 -82t81 -31q69 0 117.5 51.5t48.5 124.5q1 51 -29.5 82t-81.5 31 q-68 0 -117.5 -51.5t-49.5 -124.5zM1000 261q0 184 132 315.5t317 131.5q139 0 223 -81t83 -214q0 -184 -132 -315q-130 -131 -315 -131q-139 0 -223.5 80.5t-84.5 213.5zM1239 306q0 -51 30.5 -82t80.5 -31q69 0 118 51.5t49 124.5q1 51 -30 82t-82 31q-68 0 -117 -51.5 t-49 -124.5z" />
<glyph unicode="&#x26;" horiz-adv-x="1393" d="M145 450q31 161 168 290q84 79 189 128q-39 68 -59 138q-21 85 -6 164q30 158 162.5 266.5t296.5 108.5q155 0 250 -110t67 -257q-29 -154 -149 -274q-70 -70 -160 -117l109 -149l104 141q92 122 91 113h302q2 10 -131 -167l-215 -293l210 -285l-234 -177l-159 223 q-77 -84 -159 -137q-131 -86 -268 -86q-200 0 -322.5 144t-86.5 336zM420 430q-16 -81 35 -138q52 -56 141 -56q65 0 140 62q47 39 99 101l-189 266q-49 -25 -100 -65q-110 -86 -126 -170zM696 1160q-7 -36 4.5 -73.5t40.5 -77.5l21 -28q46 20 84 45q90 61 104 134 q10 56 -18.5 93.5t-83.5 37.5q-54 0 -98 -38t-54 -93z" />
<glyph unicode="'" horiz-adv-x="451" d="M311 909l63 606h272l-167 -606h-168z" />
<glyph unicode="(" horiz-adv-x="778" d="M246 594q65 343 266.5 604.5t465.5 346.5l-57 -299q-138 -83 -251.5 -269t-152.5 -395q-33 -170 19 -345.5t160 -259.5l-57 -299q-226 69 -340 335q-113 265 -53 581z" />
<glyph unicode=")" horiz-adv-x="778" d="M16 -322l57 299q137 83 250.5 269t153.5 395q32 170 -20 345.5t-159 259.5l57 299q226 -69 339 -335q114 -265 53 -581q-65 -343 -267 -605q-200 -261 -464 -346z" />
<glyph unicode="*" horiz-adv-x="901" d="M356 1166l29 150l200 -16l-84 168l143 77l57 -185l124 187l116 -74l-148 -173l210 16l-29 -150l-201 16l85 -168l-144 -77l-56 185l-124 -187l-117 74l148 173z" />
<glyph unicode="+" horiz-adv-x="1229" d="M172 392l47 246h393l75 393h246l-75 -393h393l-47 -246h-393l-74 -393h-246l74 393h-393z" />
<glyph unicode="," horiz-adv-x="573" d="M98 -290l27 138q87 15 115 55q18 27 30 97h-118l25 136l26 136h136h136l-53 -287q-25 -128 -107.5 -198.5t-216.5 -76.5z" />
<glyph unicode="-" horiz-adv-x="860" d="M233 472l45 238h574l-45 -238h-574z" />
<glyph unicode="." horiz-adv-x="573" d="M150 0l52 273h274l-52 -273h-274z" />
<glyph unicode="/" horiz-adv-x="942" d="M-26 -205l961 1720h270l-961 -1720h-270z" />
<glyph unicode="0" d="M143 369q0 57 12 120l105 551q42 222 211 363.5t392 141.5q224 0 338 -146q84 -105 83 -255q0 -56 -12 -120l-105 -551q-42 -221 -210.5 -362t-392.5 -141q-223 0 -338 146q-83 105 -83 253zM428 486q-22 -119 27.5 -189t156.5 -70q105 0 182.5 69t99.5 182l105 551 q22 119 -27.5 189t-157.5 70q-105 0 -182 -69t-99 -182z" />
<glyph unicode="1" d="M471 0l239 1257h-197l49 257h469l-288 -1514h-136h-136z" />
<glyph unicode="2" d="M90 0l24 129l25 129q604 469 734 597q129 128 127 257q-1 82 -51 129t-137 47q-108 0 -181 -76t-100 -217h-271q53 254 214.5 402t386.5 148q185 0 298 -112q112 -111 112 -294v-8q0 -221 -162 -395q-129 -138 -577 -478h590l-49 -258h-983z" />
<glyph unicode="3" d="M137 458h274q-2 -109 55 -170t159 -61q113 0 198 86.5t85 202.5q0 94 -62.5 151t-165.5 57h-78l48 256h54q99 0 161 55q60 54 60 144q1 53 -27.5 81t-82.5 28q-59 0 -103 -37t-60 -100h-274q40 170 177 282t306 112q147 0 242.5 -95t95.5 -241q0 -182 -141 -308 q-20 -19 -42 -34l51 -36q121 -97 121 -254v-3q0 -248 -185 -426q-183 -178 -440 -178q-210 0 -325.5 131.5t-100.5 356.5z" />
<glyph unicode="4" d="M74 227l20 106l20 106l896 1076h118h119l-196 -1030h157l-49 -258h-157l-43 -227h-272l43 227h-656zM415 485h364l113 592z" />
<glyph unicode="5" d="M131 449h277q-9 -95 48.5 -158.5t152.5 -63.5q128 0 219.5 94t91.5 225q0 97 -58 158.5t-150 61.5q-58 0 -124 -31.5t-108 -78.5l-230 66l297 793h687l-49 -258h-486l-103 -275q97 38 198 38q182 0 292 -114t110 -302q-1 -254 -191 -444q-188 -190 -441 -190 q-209 0 -332.5 136.5t-100.5 342.5z" />
<glyph unicode="6" d="M131 389q-1 58 12 123q20 103 93.5 217t276.5 352l365 432h318l-365 -432l-67 -78q39 5 78 5q159 0 261 -111q100 -109 100 -280v-4q1 -251 -195 -447q-193 -196 -442 -196q-229 0 -349 153q-87 111 -86 266zM413 454q0 -104 57 -165.5t153 -61.5q114 0 203.5 93.5 t89.5 212.5q0 104 -56.5 164t-153.5 60q-111 0 -202 -94t-91 -209z" />
<glyph unicode="7" d="M170 0l797 1250l4 7h-615l49 258h895l-25 -132l-25 -133l-779 -1250h-301z" />
<glyph unicode="8" d="M145 387q0 209 179 366q64 56 136 92l-1 -2q-100 91 -100 230q0 15 2.5 38t5.5 41q30 157 179 275t317 118q150 0 249 -97.5t99 -244.5q0 -18 -2.5 -44t-6.5 -47q-28 -144 -176 -253l-23 -16l49 -38q117 -105 117 -278q-1 -223 -182 -390t-423 -167q-189 0 -304 114.5 t-115 302.5zM423 423q0 -93 49.5 -144.5t139.5 -51.5q111 0 194.5 81t83.5 189q0 94 -50 146q-49 52 -139 52q-111 0 -194.5 -81.5t-83.5 -190.5zM623 1093q0 -60 35 -96t94 -36q62 0 118.5 44.5t67.5 101.5q2 12 3.5 25t1.5 23q0 60 -35 96.5t-94 36.5q-62 0 -118.5 -45 t-67.5 -102q-2 -12 -3.5 -25t-1.5 -23z" />
<glyph unicode="9" d="M225 913q0 246 195 438.5t445 192.5q223 0 346 -156q91 -116 92 -270q0 -53 -12 -112q-19 -101 -94 -216t-281 -359l-365 -432h-318l365 432q34 39 65 80q-37 -5 -76 -5q-160 0 -261 114t-101 293zM509 983q0 -105 57.5 -165.5t157.5 -60.5q112 0 205 94q92 93 92 208 q-1 104 -58.5 166t-155.5 62q-116 0 -208 -93q-90 -92 -90 -211z" />
<glyph unicode=":" horiz-adv-x="573" d="M150 0l52 273h274l-52 -273h-274zM314 863l52 273h274l-52 -273h-274z" />
<glyph unicode=";" horiz-adv-x="573" d="M98 -290l27 138q87 15 115 55q18 27 30 97h-118l25 136l26 136h136h136l-53 -287q-25 -128 -107.5 -198.5t-216.5 -76.5zM308 863l52 273h274l-52 -273h-274z" />
<glyph unicode="&#x3c;" horiz-adv-x="1229" d="M172 418l19 97l18 97l1125 438l-45 -234l-772 -299l658 -301l-44 -236z" />
<glyph unicode="=" horiz-adv-x="1229" d="M129 164l47 246h1032l-47 -246h-1032zM216 621l47 246h1032l-47 -246h-1032z" />
<glyph unicode="&#x3e;" horiz-adv-x="1229" d="M92 -20l44 236l772 301l-658 299l45 234l957 -438l-18 -97l-19 -97z" />
<glyph unicode="?" d="M276 1076q53 212 205.5 340.5t350.5 128.5q205 0 311 -129.5t67 -333.5q-20 -103 -92.5 -203t-185.5 -181q-94 -67 -132.5 -128.5t-61.5 -183.5h-274q28 144 102.5 277t164.5 197q128 92 160 126.5t44 95.5q16 85 -27 140q-43 54 -127 54q-83 0 -139.5 -51t-82.5 -149 h-283zM398 0l52 273h274l-52 -273h-274z" />
<glyph unicode="@" horiz-adv-x="1516" d="M223 583q0 350 272 612t634 262q253 0 414.5 -144t161.5 -370q-1 -228 -200.5 -449t-404.5 -221q-86 0 -92 89v29q-152 -118 -279 -118q-89 0 -150.5 72.5t-64.5 180.5q-5 234 164 415t393 181q131 0 173 -135v-1l47 105h171l-213 -478q-44 -96 -50.5 -131t20.5 -35 q116 0 219 156t103 331q0 172 -122.5 276.5t-324.5 104.5q-282 0 -493 -221.5t-211 -516.5q-1 -199 139.5 -328.5t355.5 -129.5q118 0 258.5 53.5t224.5 131.5h156q-102 -137 -297.5 -232t-376.5 -95q-275 0 -451 169.5t-176 436.5zM697 571q1 -58 40 -91.5t104 -33.5 q70 0 155.5 75.5t130.5 177.5q43 96 18 174t-98 78q-145 0 -250 -113.5t-100 -266.5z" />
<glyph unicode="A" horiz-adv-x="1516" d="M14 0l923 1515h109h109l347 -1515h-149h-150l-80 391h-587l-226 -391h-148h-148zM690 653h381l-99 484z" />
<glyph unicode="B" horiz-adv-x="1188" d="M143 0l288 1515h140h261q196 0 306.5 -88t110.5 -245q0 -198 -168 -319q-26 -19 -54 -34q37 -19 70 -43q126 -92 126 -255v-3q0 -238 -187.5 -383t-493.5 -145h-259h-140zM472 259h148q145 0 229 61.5t84 166.5q1 90 -63 134t-194 44h-127zM599 924h103q122 0 193 52 t71 142q0 70 -49.5 104t-151.5 34h-103z" />
<glyph unicode="C" horiz-adv-x="1597" d="M199 621q1 370 284.5 647t661.5 277q235 0 403 -124.5t219 -337.5h-317q-56 95 -149.5 149t-204.5 54q-239 0 -424.5 -190t-184.5 -435q-1 -190 116 -311t301 -121q107 0 220 52.5t200 142.5h317q-128 -205 -342 -330q-212 -124 -438 -124q-291 0 -476.5 182.5 t-185.5 468.5z" />
<glyph unicode="D" horiz-adv-x="1434" d="M129 0l288 1515h140h224q346 0 533 -155q185 -153 185 -438v-3q-1 -417 -273 -668q-270 -251 -722 -251h-235h-140zM458 259h61q317 0 506 162.5t189 434.5q0 193 -124 296.5t-355 103.5h-87z" />
<glyph unicode="E" horiz-adv-x="1065" d="M125 0l288 1515h808l-24 -131l-25 -131h-528l-71 -370h512l-25 -131l-25 -131h-512l-69 -359h537l-25 -131l-24 -131h-817z" />
<glyph unicode="F" horiz-adv-x="983" d="M125 0l288 1515h768l-24 -131l-25 -131h-488l-71 -370h464l-25 -131l-25 -131h-464l-118 -621h-140h-140z" />
<glyph unicode="G" horiz-adv-x="1720" d="M182 625q0 368 290.5 644t678.5 276q246 0 420.5 -126.5t226.5 -342.5h-336q-58 99 -157.5 154.5t-218.5 55.5q-242 0 -429 -189t-188 -432q1 -192 124 -314t317 -122h-1q238 0 423 190q45 46 77 92h-631l50 262h985q-42 -297 -280 -526q-286 -277 -669 -277h1 q-300 0 -491.5 183.5t-191.5 471.5z" />
<glyph unicode="H" horiz-adv-x="1393" d="M145 0l288 1515h140h140l-118 -619h547l118 619h140h140l-288 -1515h-140h-140l120 634h-547l-120 -634h-140h-140z" />
<glyph unicode="I" horiz-adv-x="573" d="M147 0l288 1515h140h140l-288 -1515h-140h-140z" />
<glyph unicode="J" horiz-adv-x="983" d="M70 356h282v-14q0 -50 25 -80q29 -33 85 -33q69 0 109.5 47.5t60.5 150.5l207 1088h140h140l-207 -1088q-44 -233 -168 -345q-121 -112 -332 -112q-166 0 -258 104q-85 95 -85 251q0 15 1 31z" />
<glyph unicode="K" horiz-adv-x="1270" d="M182 0l288 1515h140h140l-127 -666l600 666h164h164l-713 -750l436 -765h-172h-172l-341 666l-127 -666h-140h-140z" />
<glyph unicode="L" horiz-adv-x="901" d="M147 0l288 1515h140h140l-239 -1253h471l-25 -131l-24 -131h-751z" />
<glyph unicode="M" horiz-adv-x="1843" d="M129 0l288 1515h195h196l182 -1161l624 1161h195h196l-288 -1515h-140h-140l219 1153l-618 -1153h-115h-115l-180 1153l-219 -1153h-140h-140z" />
<glyph unicode="N" horiz-adv-x="1516" d="M143 0l288 1515h158h158l422 -1114l212 1114h140h140l-288 -1515h-154h-155l-431 1105l-210 -1105h-140h-140z" />
<glyph unicode="O" horiz-adv-x="1720" d="M195 620q0 370 287 647.5t669 277.5q289 0 472.5 -182.5t183.5 -468.5q-1 -370 -287 -647t-668 -277q-289 0 -473 182t-184 468zM483 661q-1 -190 116 -311t301 -121q243 0 431 189.5t188 434.5q1 191 -116 312t-301 121q-243 0 -431.5 -190t-187.5 -435z" />
<glyph unicode="P" d="M147 0l288 1515h140h289q223 0 340 -93t117 -270q0 -265 -179.5 -420t-485.5 -155h-119l-110 -577h-140h-140zM586 836h120q150 0 237.5 68t87.5 184q0 85 -60.5 126.5t-184.5 41.5h-120z" />
<glyph unicode="Q" horiz-adv-x="1720" d="M193 620q0 370 287 647.5t669 277.5q289 0 472.5 -182.5t183.5 -468.5q0 -352 -260 -620q76 -44 157 -44h4l19 -5l-48 -260l-58 4q-102 0 -223 72l-79 53q-210 -124 -467 -124q-289 0 -473 182t-184 468zM484 720q94 25 206 25q189 0 337 -67.5t290 -218.5l25 -26 q175 183 175 420q1 191 -116 312t-301 121q-243 0 -431 -190q-166 -167 -185 -376zM518 466q29 -65 79 -116q117 -121 301 -121q115 0 216 42h1q-114 112 -225 163q-109 50 -242 50q-65 0 -113 -13z" />
<glyph unicode="R" horiz-adv-x="1188" d="M131 0l288 1515h140h305q230 0 357 -101t126 -284v-3q1 -251 -187 -417q-129 -114 -305 -151l310 -559h-171h-172l-297 598l-114 -598h-140h-140zM561 787h156q156 0 246.5 75t91.5 204q0 96 -61.5 143t-187.5 47h-156z" />
<glyph unicode="S" horiz-adv-x="1065" d="M100 366l5 73h302q-3 -20 -3 -39q0 -63 36 -110q47 -61 129 -61q93 0 158 55.5t83 149.5q4 21 4 41q0 55 -34 93q-46 51 -181 97q-197 68 -270 172q-50 72 -51 175q1 46 10 96q36 188 184.5 312.5t337.5 124.5q185 0 286 -116q91 -104 90 -271l-1 -44h-290q1 11 1 21 q0 65 -33 105q-38 46 -112 46q-68 0 -116.5 -47t-64.5 -128q-2 -12 -2 -22q0 -48 39 -83q49 -43 185 -90q195 -67 266 -178q48 -75 48 -181q0 -52 -11 -110q-39 -205 -205.5 -341t-378.5 -136q-200 0 -317 133q-94 110 -94 263z" />
<glyph unicode="T" horiz-adv-x="860" d="M244 1253l25 131l24 131h848l-24 -131l-25 -131h-284l-239 -1253h-140h-140l239 1253h-284z" />
<glyph unicode="U" horiz-adv-x="1311" d="M199 411q0 71 15 151l181 953h140h140l-184 -967q-11 -56 -11 -104q0 -80 33 -132q52 -80 181 -80q126 0 210 82t113 234l184 967h140h140l-181 -953q-54 -284 -225 -438q-169 -154 -430 -154q-244 0 -364 163q-82 114 -82 278z" />
<glyph unicode="V" horiz-adv-x="1434" d="M297 1515h147h148l194 -1129l624 1129h146h147l-875 -1515h-115h-116z" />
<glyph unicode="W" horiz-adv-x="1843" d="M295 1515h142h143l78 -1042l452 1042h102h103l55 -1046l475 1046h141h142l-725 -1515h-115h-116l-52 1011l-444 -1011h-115h-116z" />
<glyph unicode="X" horiz-adv-x="1393" d="M8 0l664 762l-376 753h167h168l254 -509l443 509h166h166l-655 -752l381 -763h-167h-168l-259 519l-452 -519h-166h-166z" />
<glyph unicode="Y" horiz-adv-x="1270" d="M276 1515h155h155l206 -694l457 694h153h153l-675 -959l-106 -556h-140h-140l107 561z" />
<glyph unicode="Z" horiz-adv-x="1024" d="M39 0l22 117l22 118l762 1018h-545l25 131l24 131h877l-22 -117l-22 -118l-762 -1018h612l-25 -131l-24 -131h-944z" />
<glyph unicode="[" horiz-adv-x="655" d="M182 336l122 640q42 222 170.5 355.5t376.5 213.5l-57 -299q-93 -31 -146 -127.5t-93 -309.5l-88 -459q-33 -177 -13.5 -253.5t112.5 -119.5l-57 -299q-214 66 -296.5 230t-30.5 428z" />
<glyph unicode="\" horiz-adv-x="1311" d="M477 1515h272l331 -1720h-272z" />
<glyph unicode="]" horiz-adv-x="655" d="M14 -322l57 299q95 32 149 128.5t94 308.5l88 459q34 176 13 252.5t-116 120.5l57 299q215 -66 296.5 -230t30.5 -428l-122 -640q-43 -222 -171 -355.5t-376 -213.5z" />
<glyph unicode="^" horiz-adv-x="1229" d="M291 767l488 747h109h109l227 -747h-246l-131 514l-310 -514h-246z" />
<glyph unicode="_" horiz-adv-x="1024" d="M-46 -258l20 104h1024l-20 -104h-1024z" />
<glyph unicode="`" horiz-adv-x="860" d="M387 1537l157 206l398 -280l-143 -187z" />
<glyph unicode="a" horiz-adv-x="1352" d="M150 455q0 283 209 501.5t479 218.5q214 0 349 -178l26 139h250l-216 -1136h-124h-124l24 128q-198 -164 -410 -165q-200 0 -331 139.5t-132 352.5zM426 487q0 -121 77 -198.5t197 -77.5q135 0 255 107t147 251q7 36 7 70q1 101 -59 181q-80 108 -213 107 q-166 0 -288.5 -131.5t-122.5 -308.5z" />
<glyph unicode="b" horiz-adv-x="1352" d="M96 0l288 1515h136h136l-91 -482q186 142 381 142q200 0 330.5 -140t130.5 -357q0 -280 -208 -497q-207 -218 -477 -218q-211 0 -350 177l-26 -140h-250zM457 569q-7 -36 -7 -71q0 -100 59 -180q80 -107 212 -107q166 0 288.5 130.5t122.5 307.5q1 122 -76.5 200 t-197.5 78q-134 0 -253.5 -107t-147.5 -251z" />
<glyph unicode="c" horiz-adv-x="1311" d="M172 460v3q0 280 220 496t504 216q195 0 331.5 -115t164.5 -302h-307q-26 82 -86.5 124.5t-150.5 42.5q-160 0 -279 -130.5t-119 -306.5q0 -121 75 -198t193 -77q85 0 163.5 42t129.5 114h307q-106 -192 -274.5 -299t-366.5 -107q-219 0 -362.5 141t-142.5 356z" />
<glyph unicode="d" horiz-adv-x="1352" d="M164 455q0 283 215.5 501.5t494.5 218.5h3q187 0 307 -149l93 489h136h136l-288 -1515h-124h-124l24 130q-198 -167 -410 -167q-200 0 -331 139.5t-132 352.5zM440 487q0 -121 77 -198.5t197 -77.5q135 0 255 107t147 251q7 36 7 70q1 101 -59 181q-80 108 -213 107 q-166 0 -288.5 -131.5t-122.5 -308.5z" />
<glyph unicode="e" horiz-adv-x="1311" d="M158 460q1 281 219 498t501 217q213 0 352.5 -136.5t139.5 -345.5q1 -126 -54 -246h-880q11 -99 72 -162q71 -72 191 -72q88 0 166.5 39t125.5 106h288q-103 -187 -269.5 -291t-362.5 -104q-212 0 -350.5 141t-138.5 356zM471 665h626q-3 115 -73 190q-74 78 -189 78 q-161 0 -280 -136q-53 -61 -84 -132z" />
<glyph unicode="f" horiz-adv-x="573" d="M127 0l170 895h-96l46 241h96q43 184 159 293q125 116 308 116l54 -1l-50 -264h-13q-85 0 -127.5 -30.5t-56.5 -102.5l-2 -11h160l-46 -241h-160l-170 -895h-136h-136z" />
<glyph unicode="g" horiz-adv-x="1352" d="M68 -86h310q18 -58 87 -92t168 -34q166 0 280 104q100 92 138 248q-199 -177 -408 -177q-210 0 -348 141t-138 356q1 281 216 498t494 217h2q208 0 333 -182l27 143h263l-176 -923q-57 -303 -260 -489t-476 -186q-220 0 -350.5 96t-161.5 280zM434 497q0 -126 76.5 -206 t196.5 -80q135 0 256 107t148 251q7 36 7 70q0 100 -60 181q-80 107 -214 107q-165 0 -287.5 -128.5t-122.5 -301.5z" />
<glyph unicode="h" horiz-adv-x="1229" d="M111 0l288 1515h136h136l-87 -457q146 117 310 117q204 0 300 -149q64 -100 64 -242q0 -70 -16 -151l-120 -633h-136h-136l108 570q15 78 15 139q0 75 -23 125q-41 90 -153 91q-117 0 -193 -80t-105 -234l-116 -611h-136h-136z" />
<glyph unicode="i" horiz-adv-x="492" d="M109 0l216 1136h136h136l-216 -1136h-136h-136zM350 1265l47 250h272l-47 -250h-272z" />
<glyph unicode="j" horiz-adv-x="532" d="M-36 -380l52 270h3q60 0 89 36.5t47 132.5l205 1077h136h136l-205 -1077q-41 -220 -169 -331q-113 -98 -294 -108zM385 1265l47 250h272l-47 -250h-272z" />
<glyph unicode="k" horiz-adv-x="1188" d="M164 0l288 1515h136h136l-173 -910l460 531h158h159l-508 -555l352 -581h-174h-174l-286 536l-102 -536h-136h-136z" />
<glyph unicode="l" horiz-adv-x="492" d="M111 0l288 1515h136h136l-288 -1515h-136h-136z" />
<glyph unicode="m" horiz-adv-x="1925" d="M111 0l216 1136h125h125l-17 -88q146 127 320 127h3q186 0 284 -154l13 -21q17 19 35 34q159 141 359 141q230 0 321 -144q58 -90 58 -235q0 -82 -19 -183l-116 -613h-136h-136l111 587q15 81 15 142q0 69 -20 113q-38 83 -148 83q-116 0 -187 -77q-69 -77 -100 -237 l-116 -611h-136h-136l111 586q15 81 15 142q1 70 -19 114q-38 83 -150 83q-116 0 -187 -77q-69 -77 -100 -237l-116 -611h-136h-136z" />
<glyph unicode="n" horiz-adv-x="1229" d="M111 0l216 1136h125h125l-19 -100q158 139 336 139q204 0 300 -149q64 -100 64 -242q0 -70 -16 -151l-120 -633h-136h-136l108 570q15 78 15 139q0 75 -23 125q-41 90 -153 91q-117 0 -193 -80t-105 -234l-116 -611h-136h-136z" />
<glyph unicode="o" horiz-adv-x="1311" d="M145 458v4q0 280 222 496.5t509 216.5q217 0 358.5 -142t141.5 -359q0 -279 -222 -495t-509 -216q-217 0 -358.5 141.5t-141.5 353.5zM423 488q0 -121 75 -198t194 -77q164 0 285 130t121 305q0 122 -75.5 199.5t-194.5 77.5q-163 0 -284 -130.5t-121 -306.5z" />
<glyph unicode="p" horiz-adv-x="1352" d="M27 -379l288 1515h124h124l-24 -125q199 163 410 164q200 0 330.5 -140t130.5 -357q0 -280 -208 -497q-207 -218 -477 -218q-197 1 -332 153l-94 -495h-136h-136zM460 569q-7 -36 -7 -70q0 -100 59 -181q80 -107 212 -107q166 0 288.5 130.5t122.5 307.5q1 122 -76.5 200 t-197.5 78q-134 0 -253.5 -107t-147.5 -251z" />
<glyph unicode="q" horiz-adv-x="1352" d="M160 455q0 283 209 501.5t479 218.5q215 0 349 -178l26 139h250l-288 -1515h-136h-136l92 486q-185 -144 -382 -144q-200 0 -331 139.5t-132 352.5zM436 487q0 -121 77 -198.5t197 -77.5q135 0 255 107t147 251q7 36 7 70q0 100 -59 181q-80 107 -213 107 q-166 0 -288.5 -131.5t-122.5 -308.5z" />
<glyph unicode="r" horiz-adv-x="655" d="M129 0l216 1136h125h125l-19 -103l31 39q93 103 237 103h22l-48 -252q-108 -9 -180 -63q-86 -64 -109 -188l-128 -672h-136h-136z" />
<glyph unicode="s" horiz-adv-x="901" d="M100 297l3 61h289q-1 -9 -1 -18q0 -54 27 -88q31 -39 88 -39t95.5 29.5t48.5 80.5q2 12 2 22q0 36 -26 62q-34 32 -128 63q-163 53 -225 135q-44 59 -44 142q1 33 7 70q30 154 154.5 256t282.5 102q157 0 243 -96q75 -83 74 -207l-2 -45h-268v8q0 42 -20 65 q-22 25 -67 25q-49 0 -82.5 -26t-42.5 -71q-1 -6 -1 -12q0 -29 29 -52q34 -27 128 -58q167 -54 230 -138q45 -59 45 -143q-1 -34 -8 -74q-31 -167 -169 -278q-136 -110 -311 -110q-181 0 -274 104q-78 88 -77 230z" />
<glyph unicode="t" horiz-adv-x="614" d="M176 -37l177 932h-135l46 241h135l73 381h272l-73 -381h165l-46 -241h-165l-177 -932h-272z" />
<glyph unicode="u" horiz-adv-x="1229" d="M178 355v8q0 66 15 142l120 631h136h136l-108 -568q-15 -78 -15 -139q0 -75 23 -125q41 -90 153 -91q117 0 193 80t105 234l116 609h136h136l-216 -1136h-125h-125l19 102q-154 -139 -335 -139q-204 0 -300 149q-65 100 -64 243z" />
<glyph unicode="v" d="M217 1136h146h147l136 -752l408 752h149h149l-677 -1136h-107h-107z" />
<glyph unicode="w" horiz-adv-x="1638" d="M233 1136h145h145l80 -705l317 705h107h107l59 -696l339 696h147h147l-628 -1136h-82h-82l-84 727l-357 -727h-82h-82z" />
<glyph unicode="x" d="M6 0l509 590l-248 546h155h155l135 -342l283 342h149h150l-464 -547l311 -589h-164h-164l-175 392l-305 -392h-163h-164z" />
<glyph unicode="y" horiz-adv-x="1188" d="M154 -382l300 483l-220 1035h153h154l127 -721l401 721h158h159l-935 -1518h-148h-149z" />
<glyph unicode="z" horiz-adv-x="942" d="M41 0l23 125l24 126l616 634l3 3h-442l24 124l23 124h772l-24 -125l-24 -126l-616 -634l-2 -3h538l-24 -124l-23 -124h-868z" />
<glyph unicode="{" horiz-adv-x="696" d="M82 468l39 204q98 0 162 50t74 135l58 306q28 217 134.5 292t385.5 75l-34 -178q-115 0 -152.5 -27t-49.5 -120l-58 -306q-29 -224 -121 -282q-53 -33 -188 -47q130 -14 170 -47q70 -58 13 -282l-57 -306q-24 -93 3.5 -120t142.5 -27l-34 -178q-279 0 -357 75t-23 292 l57 306q23 85 -22 135t-143 50z" />
<glyph unicode="|" horiz-adv-x="1229" d="M438 -512l389 2048h268l-389 -2048h-268z" />
<glyph unicode="}" horiz-adv-x="696" d="M-24 -390l34 178q115 0 152.5 27t49.5 120l57 306q29 224 121 282q54 33 188 47q-129 14 -170 47q-70 58 -13 282l58 306q24 93 -3.5 120t-142.5 27l34 178q279 0 357.5 -75t22.5 -292l-58 -306q-22 -85 23 -135t143 -50l-39 -204q-98 0 -163 -50q-63 -50 -74 -135 l-57 -306q-27 -217 -135 -292q-106 -75 -385 -75z" />
<glyph unicode="~" horiz-adv-x="1229" d="M233 525q62 84 141.5 133t153.5 49q43 0 116 -24t136 -59q42 -24 89 -40.5t73 -16.5q45 0 99.5 38t103.5 102l41 -196q-85 -98 -153 -140t-143 -42q-40 0 -101.5 24.5t-146.5 74.5q-31 18 -78 29.5t-93 11.5q-54 0 -99.5 -32t-98.5 -108z" />
<glyph unicode="&#xa1;" horiz-adv-x="573" d="M82 -375l216 1132h270l-216 -1132h-270zM320 878l48 262h274l-48 -262h-274z" />
<glyph unicode="&#xa2;" d="M225 695q0 52 9 101q32 166 170 301q130 129 290 163l39 205h257l-40 -210q90 -25 156 -83q115 -101 123 -265h-291q-8 38 -61.5 66.5t-116.5 28.5q-101 0 -179.5 -83t-78.5 -190q0 -76 49.5 -124.5t127.5 -48.5q59 0 116.5 23t79.5 55h301q-87 -163 -230 -254 q-84 -52 -178 -77l-42 -222h-257l42 223q-97 28 -170 100q-116 115 -116 291z" />
<glyph unicode="&#xa3;" d="M78 0l49 258h287q46 63 56 117q13 70 -0.5 130.5t-53.5 112.5l-15 19h-281l50 260h107q-14 74 -1 144q42 218 206.5 361t374.5 143q182 0 301.5 -127t101.5 -304h-277q-15 92 -56.5 133t-119.5 41q-92 0 -163.5 -69t-92.5 -179q-12 -60 8 -121l7 -22h435l-50 -260h-227 q11 -22 18 -49q30 -105 8 -216q-10 -54 -56 -114h27q115 0 182 82.5t67 223.5h267q8 -232 -162.5 -398t-417.5 -166h-579z" />
<glyph unicode="&#xa4;" d="M109 286l168 142q-44 104 -19 235q25 132 109 236l-114 141l168 141l114 -142q114 64 245 64q131 1 221 -65l169 143l114 -141l-170 -143q46 -102 20 -234q-25 -129 -108 -235l114 -142l-168 -141l-114 142q-115 -64 -246 -64q-131 1 -221 64l-168 -142zM507 663 q-15 -80 29.5 -135t123.5 -55t144.5 55t80.5 135t-29.5 135t-123.5 55t-144.5 -55t-80.5 -135z" />
<glyph unicode="&#xa5;" d="M170 383l41 216h349l12 66l-42 121h-284l42 216h168l-180 513h137h138l205 -590l423 590h135h136l-368 -513h174l-42 -216h-287l-83 -115l-13 -72h348l-41 -216h-348l-73 -383h-135h-136l73 383h-349z" />
<glyph unicode="&#xa6;" horiz-adv-x="1229" d="M438 -342l129 682h268l-129 -682h-268zM633 682l130 682h268l-130 -682h-268z" />
<glyph unicode="&#xa7;" d="M133 107h252q-3 -88 43.5 -134t138.5 -46q85 0 140.5 43t55.5 109q0 44 -31 76.5t-119 80.5l-159 87q-165 91 -222.5 160t-57.5 176q0 181 174 301q34 23 69 41q-29 65 -30 149q0 171 137 283q136 112 344 112q185 0 271 -92.5t80 -285.5h-252q-2 65 -38.5 98.5 t-104.5 33.5q-75 0 -124 -34t-49 -85q0 -41 25.5 -69.5t98.5 -70.5l153 -87q153 -87 206.5 -153t53.5 -167q0 -194 -214 -322l-3 -2q57 -75 56 -187q0 -191 -143 -316t-361 -125q-206 0 -307.5 110.5t-82.5 315.5zM438 715q0 -38 30.5 -68.5t118.5 -78.5l159 -87 q40 -21 74 -43q103 60 104 147q0 38 -25.5 66.5t-99.5 70.5l-153 87q-49 28 -90 56l-20 -11q-98 -55 -98 -139z" />
<glyph unicode="&#xa8;" horiz-adv-x="1024" d="M401 1303l52 273h274l-52 -273h-274zM833 1303l52 273h274l-52 -273h-274z" />
<glyph unicode="&#xa9;" horiz-adv-x="1516" d="M102 757q63 329 333 556t598 227t512.5 -227t121.5 -556q-63 -328 -332.5 -555t-598.5 -227t-513 227t-121 555zM287 757q-49 -255 91 -430.5t390 -175.5q251 0 458 175.5t256 430.5t-90.5 431t-391.5 176q-251 0 -457.5 -176t-255.5 -431zM445 655q0 241 157 407.5 t383 166.5q146 0 237.5 -84.5t100.5 -228.5h-186q-12 81 -56.5 119.5t-125.5 38.5q-134 0 -229 -117.5t-96 -282.5q0 -107 56.5 -169t153.5 -62q82 0 140 40t97 124h187q-54 -142 -177.5 -228t-272.5 -86q-169 0 -268.5 98t-100.5 264z" />
<glyph unicode="&#xaa;" horiz-adv-x="737" d="M260 1156q0 156 111.5 273.5t259.5 117.5q98 1 145 -81l11 59h186l-116 -608h-92h-92l10 51q-79 -71 -176 -72q-100 0 -173.5 77.5t-73.5 182.5zM450 1219q0 -68 32.5 -109t86.5 -41q58 0 105 43.5t59 108.5q13 66 -22 108.5t-102 42.5q-54 0 -106.5 -50.5t-52.5 -102.5z " />
<glyph unicode="&#xab;" horiz-adv-x="942" d="M215 487l20 104l20 104l337 264l-47 -249l-160 -119l114 -120l-47 -249zM623 487l20 104l20 104l337 264l-47 -249l-160 -119l114 -120l-47 -249z" />
<glyph unicode="&#xac;" horiz-adv-x="1229" d="M215 619l47 246h1032l-124 -648h-243l77 402h-789z" />
<glyph unicode="&#xad;" horiz-adv-x="860" d="M233 472l45 238h574l-45 -238h-574z" />
<glyph unicode="&#xae;" horiz-adv-x="1516" d="M102 757q63 329 333 556t598 227t512.5 -227t121.5 -556q-63 -328 -332.5 -555t-598.5 -227t-513 227t-121 555zM285 757q-48 -253 92.5 -428t391.5 -175q252 0 459.5 175t255.5 428q48 254 -92.5 429t-392.5 175t-459 -175t-255 -429zM461 301l171 898h89h277 q143 0 213 -47t70 -143q0 -151 -100 -224q-41 -29 -101 -48q124 -64 106 -201l-16 -107q-8 -59 -10 -87.5t3 -40.5h-87h-87q-9 1 -9 35t10 115l10 93q10 90 -98 108q-49 8 -194 11l-69 -362h-89h-89zM735 803h173q84 0 134.5 40.5t50.5 106.5q0 50 -34.5 75.5t-103.5 25.5 h-173z" />
<glyph unicode="&#xaf;" horiz-adv-x="1024" d="M285 1668l19 103h1024l-19 -103h-1024z" />
<glyph unicode="&#xb0;" horiz-adv-x="819" d="M328 1167q23 122 124 206.5t223 84.5t190 -84.5t45 -206.5t-123.5 -206.5t-222.5 -84.5t-190.5 84.5t-45.5 206.5zM475 1167q-12 -63 21.5 -107t93.5 -44t110.5 44t62.5 107t-21.5 107t-93.5 44t-110.5 -44t-62.5 -107z" />
<glyph unicode="&#xb1;" horiz-adv-x="1229" d="M76 -127l46 246h1032l-46 -246h-1032zM209 572l47 246h393l58 305h246l-58 -305h393l-47 -246h-393l-59 -305h-246l59 305h-393z" />
<glyph unicode="&#xb2;" horiz-adv-x="688" d="M150 606l17 86l16 86q357 270 434 341q76 71 76 133q0 48 -26 75.5t-71 27.5q-60 0 -97.5 -40t-53.5 -121h-195q32 157 134 248t245 91q117 0 191.5 -66.5t74.5 -170.5v-3q1 -142 -101 -248q-76 -79 -328 -263h344l-34 -176h-626z" />
<glyph unicode="&#xb3;" horiz-adv-x="688" d="M178 890h201q-1 -60 28 -93.5t81 -33.5q59 0 106.5 46.5t47.5 103.5q0 53 -34 85t-91 32h-57l33 174h38q51 0 83 26t32 68q0 27 -14.5 43.5t-38.5 16.5q-29 0 -48 -18.5t-29 -56.5h-194q26 108 113 179t193 71q91 0 153.5 -60t62.5 -148q1 -108 -90 -185l-17 -13 q16 -6 28 -17q77 -58 78 -155q0 -147 -118 -257t-276 -110q-133 0 -206.5 81.5t-64.5 220.5z" />
<glyph unicode="&#xb4;" horiz-adv-x="860" d="M459 1469l505 270l81 -212l-514 -249z" />
<glyph unicode="&#xb5;" horiz-adv-x="1180" d="M6 -380l137 721l151 795h272l-107 -562q-34 -177 2.5 -269t140.5 -92q127 0 213 75t111 208l122 640h272l-216 -1136h-272l18 98q-129 -135 -286 -135q-116 0 -181 80q-9 14 -21 25l-84 -448h-272z" />
<glyph unicode="&#xb6;" horiz-adv-x="1229" d="M184 1019q0 233 161 364.5t447 131.5h737l-39 -209h-163l-289 -1518h-230l289 1518h-197l-289 -1518h-229l178 939q-181 1 -278.5 76t-97.5 216z" />
<glyph unicode="&#xb7;" horiz-adv-x="573" d="M221 621l52 273h274l-52 -273h-274z" />
<glyph unicode="&#xb8;" horiz-adv-x="696" d="M137 -335h109q3 -36 23.5 -55t56.5 -19q43 0 74.5 26.5t39.5 70.5q8 41 -15 71t-62 30q-33 0 -59 -12t-38 -32l-93 37l142 230l101 -14l-69 -109l53 3q84 0 126 -58t24 -149q-16 -88 -84.5 -143.5t-158.5 -55.5q-77 0 -123 48.5t-47 130.5z" />
<glyph unicode="&#xb9;" horiz-adv-x="688" d="M373 606l140 734h-118l33 175h317l-173 -909h-99h-100z" />
<glyph unicode="&#xba;" horiz-adv-x="737" d="M268 1163q0 151 118.5 267t272.5 116q116 0 192 -76t76 -193q-1 -150 -119.5 -265.5t-272.5 -115.5q-116 0 -191.5 75.5t-75.5 191.5zM459 1189q1 -51 32 -85.5t77 -34.5q67 0 117.5 53.5t50.5 125.5q-1 51 -32.5 87t-77.5 36q-72 0 -119.5 -51.5t-47.5 -130.5z" />
<glyph unicode="&#xbb;" horiz-adv-x="942" d="M166 222l47 249l160 119l-114 120l47 249l237 -265l-20 -104l-20 -104zM574 222l47 249l160 119l-114 120l47 249l237 -265l-20 -104l-20 -104z" />
<glyph unicode="&#xbc;" horiz-adv-x="1720" d="M383 0l909 1515h199l-909 -1515h-199zM407 606l140 734h-118l33 175h317l-173 -909h-99h-100zM858 132l15 77l15 78l547 622h80h81l-116 -609h100l-32 -168h-100l-25 -132h-185l25 132h-405zM1081 300h214l66 342z" />
<glyph unicode="&#xbd;" horiz-adv-x="1720" d="M322 0l909 1515h199l-909 -1515h-199zM351 606l140 734h-118l33 175h317l-173 -909h-99h-100zM955 0l17 86l16 86q357 270 434 341q76 71 76 133q0 48 -26 75.5t-71 27.5q-60 0 -97.5 -40t-53.5 -121h-195q32 157 134 248t245 91q117 0 191.5 -66.5t74.5 -170.5v-3 q1 -142 -101 -248q-76 -79 -328 -263h344l-34 -176h-626z" />
<glyph unicode="&#xbe;" horiz-adv-x="1720" d="M500 0l909 1515h199l-909 -1515h-199zM199 890h201q-1 -60 28 -93.5t81 -33.5q59 0 106.5 46.5t47.5 103.5q0 53 -34 85t-91 32h-57l33 174h38q51 0 83 26t32 68q0 27 -14.5 43.5t-38.5 16.5q-29 0 -48 -18.5t-29 -56.5h-194q26 108 113 179t193 71q91 0 153.5 -60 t62.5 -148q1 -108 -90 -185l-17 -13q16 -6 28 -17q77 -58 78 -155q0 -147 -118 -257t-276 -110q-133 0 -206.5 81.5t-64.5 220.5zM982 132l15 77l15 78l547 622h80h81l-116 -609h100l-32 -168h-100l-25 -132h-185l25 132h-405zM1205 300h214l66 342z" />
<glyph unicode="&#xbf;" d="M141 54q19 103 92 203t186 181q94 67 132 128.5t62 183.5h274q-28 -144 -103 -277t-164 -197q-128 -92 -160.5 -126.5t-43.5 -95.5q-15 -85 28 -140q43 -54 127 -54q83 0 139 51t82 149h283q-52 -212 -205 -340.5t-351 -128.5q-205 0 -310.5 129.5t-67.5 333.5zM627 863 l52 273h274l-52 -273h-274z" />
<glyph unicode="&#xc0;" horiz-adv-x="1516" d="M14 0l923 1515h109h109l347 -1515h-149h-150l-80 391h-587l-226 -391h-148h-148zM690 653h381l-99 484zM776 1885l157 206l398 -280l-142 -187z" />
<glyph unicode="&#xc1;" horiz-adv-x="1516" d="M14 0l923 1515h109h109l347 -1515h-149h-150l-80 391h-587l-226 -391h-148h-148zM690 653h381l-99 484zM846 1817l506 270l80 -212l-512 -249z" />
<glyph unicode="&#xc2;" horiz-adv-x="1516" d="M14 0l923 1515h109h109l347 -1515h-149h-150l-80 391h-587l-226 -391h-148h-148zM690 653h381l-99 484zM665 1651l354 281h107h107l248 -281h-299l-81 130l-134 -130h-302z" />
<glyph unicode="&#xc3;" horiz-adv-x="1516" d="M14 0l923 1515h109h109l347 -1515h-149h-150l-80 391h-587l-226 -391h-148h-148zM690 653h381l-99 484zM703 1829q55 38 128 64t124 26q27 0 82 -12t107 -29q24 -8 54 -13.5t48 -5.5q35 0 83 13.5t82 33.5l81 -166q-51 -38 -123.5 -64t-126.5 -26q-21 0 -76.5 12 t-113.5 30q-19 6 -47.5 10t-51.5 4q-35 0 -84 -12.5t-84 -30.5z" />
<glyph unicode="&#xc4;" horiz-adv-x="1516" d="M14 0l923 1515h109h109l347 -1515h-149h-150l-80 391h-587l-226 -391h-148h-148zM690 653h381l-99 484zM720 1651l52 273h274l-52 -273h-274zM1152 1651l52 273h274l-52 -273h-274z" />
<glyph unicode="&#xc5;" horiz-adv-x="1516" d="M14 0l923 1515h109h109l347 -1515h-149h-150l-80 391h-587l-226 -391h-148h-148zM690 653h381l-99 484zM869 1765q16 92 91 156t167 64t144.5 -64t36.5 -156t-90.5 -155.5t-166.5 -63.5t-145 63.5t-37 155.5zM1007 1765q-6 -34 13.5 -57.5t53.5 -23.5t62 23.5t34 57.5 t-13.5 58t-53.5 24t-62 -24t-34 -58z" />
<glyph unicode="&#xc6;" horiz-adv-x="1843" d="M-9 0l1277 1515h249h456l-24 -131l-25 -131h-456l-71 -370h441l-25 -131l-25 -131h-441l-69 -359h464l-25 -131l-24 -131h-464h-280l74 391h-398l-309 -391h-162h-163zM834 653h239l76 396z" />
<glyph unicode="&#xc7;" horiz-adv-x="1597" d="M199 621q1 370 284.5 647t661.5 277q235 0 403 -124.5t219 -337.5h-317q-56 95 -149.5 149t-204.5 54q-239 0 -424.5 -190t-184.5 -435q-1 -190 116 -311t301 -121q107 0 220 52.5t200 142.5h317q-128 -205 -342 -330q-212 -124 -438 -124q-291 0 -476.5 182.5 t-185.5 468.5zM576 -335h109q3 -36 23.5 -55t56.5 -19q43 0 74.5 26.5t39.5 70.5q8 41 -15 71t-62 30q-33 0 -59 -12t-38 -32l-93 37l142 230l101 -14l-69 -109l53 3q84 0 126 -58t24 -149q-16 -88 -84.5 -143.5t-158.5 -55.5q-77 0 -123 48.5t-47 130.5z" />
<glyph unicode="&#xc8;" horiz-adv-x="1065" d="M125 0l288 1515h808l-24 -131l-25 -131h-528l-71 -370h512l-25 -131l-25 -131h-512l-69 -359h537l-25 -131l-24 -131h-817zM507 1885l157 206l398 -280l-142 -187z" />
<glyph unicode="&#xc9;" horiz-adv-x="1065" d="M125 0l288 1515h808l-24 -131l-25 -131h-528l-71 -370h512l-25 -131l-25 -131h-512l-69 -359h537l-25 -131l-24 -131h-817zM577 1817l506 270l80 -212l-512 -249z" />
<glyph unicode="&#xca;" horiz-adv-x="1065" d="M125 0l288 1515h808l-24 -131l-25 -131h-528l-71 -370h512l-25 -131l-25 -131h-512l-69 -359h537l-25 -131l-24 -131h-817zM437 1651l354 281h107h107l248 -281h-299l-81 130l-134 -130h-302z" />
<glyph unicode="&#xcb;" horiz-adv-x="1065" d="M125 0l288 1515h808l-24 -131l-25 -131h-528l-71 -370h512l-25 -131l-25 -131h-512l-69 -359h537l-25 -131l-24 -131h-817zM481 1651l52 273h274l-52 -273h-274zM913 1651l52 273h274l-52 -273h-274z" />
<glyph unicode="&#xcc;" horiz-adv-x="573" d="M147 0l288 1515h140h140l-288 -1515h-140h-140zM305 1885l157 206l398 -280l-142 -187z" />
<glyph unicode="&#xcd;" horiz-adv-x="573" d="M147 0l288 1515h140h140l-288 -1515h-140h-140zM375 1817l506 270l80 -212l-512 -249z" />
<glyph unicode="&#xce;" horiz-adv-x="573" d="M147 0l288 1515h140h140l-288 -1515h-140h-140zM194 1651l354 281h107h107l248 -281h-299l-81 130l-134 -130h-302z" />
<glyph unicode="&#xcf;" horiz-adv-x="573" d="M147 0l288 1515h140h140l-288 -1515h-140h-140zM249 1651l52 273h274l-52 -273h-274zM681 1651l52 273h274l-52 -273h-274z" />
<glyph unicode="&#xd0;" horiz-adv-x="1520" d="M170 639l50 262h144l117 614h140h270q324 0 498.5 -152.5t174.5 -435.5q0 -421 -259.5 -674t-690.5 -253h-281h-140l121 639h-144zM522 259h107q297 0 474 165t178 441q-1 188 -113.5 289.5t-322.5 101.5h-133l-68 -355h282l-50 -262h-282z" />
<glyph unicode="&#xd1;" horiz-adv-x="1516" d="M143 0l288 1515h158h158l422 -1114l212 1114h140h140l-288 -1515h-154h-155l-431 1105l-210 -1105h-140h-140zM703 1829q55 38 128 64t124 26q27 0 82 -12t107 -29q24 -8 54 -13.5t48 -5.5q35 0 83 13.5t82 33.5l81 -166q-51 -38 -123.5 -64t-126.5 -26q-21 0 -76.5 12 t-113.5 30q-19 6 -47.5 10t-51.5 4q-35 0 -84 -12.5t-84 -30.5z" />
<glyph unicode="&#xd2;" horiz-adv-x="1720" d="M195 620q0 370 287 647.5t669 277.5q289 0 472.5 -182.5t183.5 -468.5q-1 -370 -287 -647t-668 -277q-289 0 -473 182t-184 468zM483 661q-1 -190 116 -311t301 -121q243 0 431 189.5t188 434.5q1 191 -116 312t-301 121q-243 0 -431.5 -190t-187.5 -435zM875 1885 l157 206l398 -280l-142 -187z" />
<glyph unicode="&#xd3;" horiz-adv-x="1720" d="M195 620q0 370 287 647.5t669 277.5q289 0 472.5 -182.5t183.5 -468.5q-1 -370 -287 -647t-668 -277q-289 0 -473 182t-184 468zM483 661q-1 -190 116 -311t301 -121q243 0 431 189.5t188 434.5q1 191 -116 312t-301 121q-243 0 -431.5 -190t-187.5 -435zM945 1817 l506 270l80 -212l-512 -249z" />
<glyph unicode="&#xd4;" horiz-adv-x="1720" d="M195 620q0 370 287 647.5t669 277.5q289 0 472.5 -182.5t183.5 -468.5q-1 -370 -287 -647t-668 -277q-289 0 -473 182t-184 468zM483 661q-1 -190 116 -311t301 -121q243 0 431 189.5t188 434.5q1 191 -116 312t-301 121q-243 0 -431.5 -190t-187.5 -435zM764 1651 l354 281h107h107l248 -281h-299l-81 130l-134 -130h-302z" />
<glyph unicode="&#xd5;" horiz-adv-x="1720" d="M195 620q0 370 287 647.5t669 277.5q289 0 472.5 -182.5t183.5 -468.5q-1 -370 -287 -647t-668 -277q-289 0 -473 182t-184 468zM483 661q-1 -190 116 -311t301 -121q243 0 431 189.5t188 434.5q1 191 -116 312t-301 121q-243 0 -431.5 -190t-187.5 -435zM802 1829 q55 38 128 64t124 26q27 0 82 -12t107 -29q24 -8 54 -13.5t48 -5.5q35 0 83 13.5t82 33.5l81 -166q-51 -38 -123.5 -64t-126.5 -26q-21 0 -76.5 12t-113.5 30q-19 6 -47.5 10t-51.5 4q-35 0 -84 -12.5t-84 -30.5z" />
<glyph unicode="&#xd6;" horiz-adv-x="1720" d="M195 620q0 370 287 647.5t669 277.5q289 0 472.5 -182.5t183.5 -468.5q-1 -370 -287 -647t-668 -277q-289 0 -473 182t-184 468zM483 661q-1 -190 116 -311t301 -121q243 0 431 189.5t188 434.5q1 191 -116 312t-301 121q-243 0 -431.5 -190t-187.5 -435zM819 1651 l52 273h274l-52 -273h-274zM1251 1651l52 273h274l-52 -273h-274z" />
<glyph unicode="&#xd7;" horiz-adv-x="1229" d="M156 188l390 327l-265 327l200 168l265 -327l389 327l136 -168l-389 -327l264 -327l-200 -168l-264 327l-390 -327z" />
<glyph unicode="&#xd8;" horiz-adv-x="1720" d="M193 11l156 180q-148 175 -147 429q0 370 287 647.5t669 277.5q173 1 309 -66l165 191l193 -158l-162 -186q151 -174 151 -432q-1 -370 -287 -647t-668 -277q-175 0 -314 67l-159 -184zM490 661q1 -136 59 -239l506 583l218 252q-74 29 -164 29q-243 0 -431.5 -190 t-187.5 -435zM738 260q76 -31 169 -31q243 0 431 189.5t188 434.5q-1 140 -61 244l-503 -579z" />
<glyph unicode="&#xd9;" horiz-adv-x="1311" d="M199 411q0 71 15 151l181 953h140h140l-184 -967q-11 -56 -11 -104q0 -80 33 -132q52 -80 181 -80q126 0 210 82t113 234l184 967h140h140l-181 -953q-54 -284 -225 -438q-169 -154 -430 -154q-244 0 -364 163q-82 114 -82 278zM668 1885l157 206l398 -280l-142 -187z " />
<glyph unicode="&#xda;" horiz-adv-x="1311" d="M199 411q0 71 15 151l181 953h140h140l-184 -967q-11 -56 -11 -104q0 -80 33 -132q52 -80 181 -80q126 0 210 82t113 234l184 967h140h140l-181 -953q-54 -284 -225 -438q-169 -154 -430 -154q-244 0 -364 163q-82 114 -82 278zM738 1817l506 270l80 -212l-512 -249z" />
<glyph unicode="&#xdb;" horiz-adv-x="1311" d="M199 411q0 71 15 151l181 953h140h140l-184 -967q-11 -56 -11 -104q0 -80 33 -132q52 -80 181 -80q126 0 210 82t113 234l184 967h140h140l-181 -953q-54 -284 -225 -438q-169 -154 -430 -154q-244 0 -364 163q-82 114 -82 278zM557 1651l354 281h107h107l248 -281h-299 l-81 130l-134 -130h-302z" />
<glyph unicode="&#xdc;" horiz-adv-x="1311" d="M199 411q0 71 15 151l181 953h140h140l-184 -967q-11 -56 -11 -104q0 -80 33 -132q52 -80 181 -80q126 0 210 82t113 234l184 967h140h140l-181 -953q-54 -284 -225 -438q-169 -154 -430 -154q-244 0 -364 163q-82 114 -82 278zM612 1651l52 273h274l-52 -273h-274z M1044 1651l52 273h274l-52 -273h-274z" />
<glyph unicode="&#xdd;" horiz-adv-x="1270" d="M276 1515h155h155l206 -694l457 694h153h153l-675 -959l-106 -556h-140h-140l107 561zM715 1817l506 270l80 -212l-512 -249z" />
<glyph unicode="&#xde;" d="M147 0l288 1515h140h140l-54 -288h120q237 0 361.5 -94t123.5 -274q0 -274 -173 -422.5t-492 -148.5l-119 1l-55 -289h-140h-140zM531 549h120q153 0 240 66q85 65 86 183q0 83 -63 126.5t-183 43.5h-120z" />
<glyph unicode="&#xdf;" horiz-adv-x="1229" d="M104 0l197 1037l7 34q40 213 189 343.5t351 130.5q189 0 296 -124t73 -303q-35 -183 -172 -275l-12 -8q89 -27 147 -72q145 -110 103 -333q-41 -212 -190 -339.5t-356 -127.5q-218 0 -310 115t-30 311h227q3 -79 45 -127.5t108 -48.5q79 0 144 56.5t81 139.5 q24 126 -57.5 181.5t-296.5 58.5l46 240q100 1 161 54t81 154q17 89 -20.5 144t-115.5 55q-84 0 -143 -68q-59 -67 -83 -191l-197 -1037h-136h-137z" />
<glyph unicode="&#xe0;" horiz-adv-x="1352" d="M150 455q0 283 209 501.5t479 218.5q214 0 349 -178l26 139h250l-216 -1136h-124h-124l24 128q-198 -164 -410 -165q-200 0 -331 139.5t-132 352.5zM426 487q0 -121 77 -198.5t197 -77.5q135 0 255 107t147 251q7 36 7 70q1 101 -59 181q-80 108 -213 107 q-166 0 -288.5 -131.5t-122.5 -308.5zM638 1537l157 206l398 -280l-142 -187z" />
<glyph unicode="&#xe1;" horiz-adv-x="1352" d="M150 455q0 283 209 501.5t479 218.5q214 0 349 -178l26 139h250l-216 -1136h-124h-124l24 128q-198 -164 -410 -165q-200 0 -331 139.5t-132 352.5zM426 487q0 -121 77 -198.5t197 -77.5q135 0 255 107t147 251q7 36 7 70q1 101 -59 181q-80 108 -213 107 q-166 0 -288.5 -131.5t-122.5 -308.5zM708 1469l506 270l80 -212l-512 -249z" />
<glyph unicode="&#xe2;" horiz-adv-x="1352" d="M150 455q0 283 209 501.5t479 218.5q214 0 349 -178l26 139h250l-216 -1136h-124h-124l24 128q-198 -164 -410 -165q-200 0 -331 139.5t-132 352.5zM426 487q0 -121 77 -198.5t197 -77.5q135 0 255 107t147 251q7 36 7 70q1 101 -59 181q-80 108 -213 107 q-166 0 -288.5 -131.5t-122.5 -308.5zM527 1303l354 281h107h107l248 -281h-299l-81 130l-134 -130h-302z" />
<glyph unicode="&#xe3;" horiz-adv-x="1352" d="M150 455q0 283 209 501.5t479 218.5q214 0 349 -178l26 139h250l-216 -1136h-124h-124l24 128q-198 -164 -410 -165q-200 0 -331 139.5t-132 352.5zM426 487q0 -121 77 -198.5t197 -77.5q135 0 255 107t147 251q7 36 7 70q1 101 -59 181q-80 108 -213 107 q-166 0 -288.5 -131.5t-122.5 -308.5zM565 1481q55 38 128 64t124 26q27 0 82 -12t107 -29q24 -8 54 -13.5t48 -5.5q35 0 83 13.5t82 33.5l81 -166q-51 -38 -123.5 -64t-126.5 -26q-21 0 -76.5 12t-113.5 30q-19 6 -47.5 10t-51.5 4q-35 0 -84 -12.5t-84 -30.5z" />
<glyph unicode="&#xe4;" horiz-adv-x="1352" d="M150 455q0 283 209 501.5t479 218.5q214 0 349 -178l26 139h250l-216 -1136h-124h-124l24 128q-198 -164 -410 -165q-200 0 -331 139.5t-132 352.5zM426 487q0 -121 77 -198.5t197 -77.5q135 0 255 107t147 251q7 36 7 70q1 101 -59 181q-80 108 -213 107 q-166 0 -288.5 -131.5t-122.5 -308.5zM582 1303l52 273h274l-52 -273h-274zM1014 1303l52 273h274l-52 -273h-274z" />
<glyph unicode="&#xe5;" horiz-adv-x="1352" d="M150 455q0 283 209 501.5t479 218.5q214 0 349 -178l26 139h250l-216 -1136h-124h-124l24 128q-198 -164 -410 -165q-200 0 -331 139.5t-132 352.5zM426 487q0 -121 77 -198.5t197 -77.5q135 0 255 107t147 251q7 36 7 70q1 101 -59 181q-80 108 -213 107 q-166 0 -288.5 -131.5t-122.5 -308.5zM735 1488q16 92 90.5 156t166.5 64t145 -64t37 -156t-90.5 -155.5t-166.5 -63.5t-145 63.5t-37 155.5zM873 1488q-6 -34 13.5 -57.5t53.5 -23.5t62 23.5t34 57.5t-14 58t-54 24t-61.5 -24t-33.5 -58z" />
<glyph unicode="&#xe6;" horiz-adv-x="2212" d="M154 469v3q0 262 214 483q214 220 468 220q239 0 354 -132l18 93h250l-20 -105q191 145 338 144q213 0 352.5 -136.5t139.5 -345.5q1 -126 -54 -246h-877q12 -91 73 -156q75 -78 190 -78q89 0 168.5 39t126.5 106h282q-103 -187 -269.5 -291t-362.5 -104q-139 3 -282 147 l-21 -110h-124h-124l18 98q-173 -135 -402 -135q-189 0 -322.5 149t-133.5 357zM428 490q0 -121 76 -198t195 -77q133 0 252 106.5t146 249.5q28 142 -51 249t-211 107q-164 0 -286 -131q-120 -130 -121 -306zM1372 665h627q-2 114 -73 186t-191 72q-157 0 -279 -132 q-54 -58 -84 -126z" />
<glyph unicode="&#xe7;" horiz-adv-x="1311" d="M170 460v3q0 280 220 496t504 216q195 0 331.5 -115t164.5 -302h-307q-26 82 -86.5 124.5t-150.5 42.5q-160 0 -279 -130.5t-119 -306.5q0 -121 75 -198t193 -77q85 0 163.5 42t129.5 114h307q-106 -192 -274.5 -299t-366.5 -107q-219 0 -362.5 141t-142.5 356zM417 -335 h109q3 -36 23.5 -55t56.5 -19q43 0 74.5 26.5t39.5 70.5q8 41 -15 71t-62 30q-33 0 -59 -12t-38 -32l-93 37l142 230l101 -14l-69 -109l53 3q84 0 126 -58t24 -149q-16 -88 -84.5 -143.5t-158.5 -55.5q-77 0 -123 48.5t-47 130.5z" />
<glyph unicode="&#xe8;" horiz-adv-x="1311" d="M158 460q1 281 219 498t501 217q213 0 352.5 -136.5t139.5 -345.5q1 -126 -54 -246h-880q11 -99 72 -162q71 -72 191 -72q88 0 166.5 39t125.5 106h288q-103 -187 -269.5 -291t-362.5 -104q-212 0 -350.5 141t-138.5 356zM471 665h626q-3 115 -73 190q-74 78 -189 78 q-161 0 -280 -136q-53 -61 -84 -132zM630 1537l157 206l398 -280l-142 -187z" />
<glyph unicode="&#xe9;" horiz-adv-x="1311" d="M158 460q1 281 219 498t501 217q213 0 352.5 -136.5t139.5 -345.5q1 -126 -54 -246h-880q11 -99 72 -162q71 -72 191 -72q88 0 166.5 39t125.5 106h288q-103 -187 -269.5 -291t-362.5 -104q-212 0 -350.5 141t-138.5 356zM471 665h626q-3 115 -73 190q-74 78 -189 78 q-161 0 -280 -136q-53 -61 -84 -132zM700 1469l506 270l80 -212l-512 -249z" />
<glyph unicode="&#xea;" horiz-adv-x="1311" d="M158 460q1 281 219 498t501 217q213 0 352.5 -136.5t139.5 -345.5q1 -126 -54 -246h-880q11 -99 72 -162q71 -72 191 -72q88 0 166.5 39t125.5 106h288q-103 -187 -269.5 -291t-362.5 -104q-212 0 -350.5 141t-138.5 356zM471 665h626q-3 115 -73 190q-74 78 -189 78 q-161 0 -280 -136q-53 -61 -84 -132zM519 1303l354 281h107h107l248 -281h-299l-81 130l-134 -130h-302z" />
<glyph unicode="&#xeb;" horiz-adv-x="1311" d="M158 460q1 281 219 498t501 217q213 0 352.5 -136.5t139.5 -345.5q1 -126 -54 -246h-880q11 -99 72 -162q71 -72 191 -72q88 0 166.5 39t125.5 106h288q-103 -187 -269.5 -291t-362.5 -104q-212 0 -350.5 141t-138.5 356zM471 665h626q-3 115 -73 190q-74 78 -189 78 q-161 0 -280 -136q-53 -61 -84 -132zM574 1303l52 273h274l-52 -273h-274zM1006 1303l52 273h274l-52 -273h-274z" />
<glyph unicode="&#xec;" horiz-adv-x="492" d="M109 0l216 1136h136h136l-216 -1136h-136h-136zM197 1537l157 206l398 -280l-142 -187z" />
<glyph unicode="&#xed;" horiz-adv-x="492" d="M109 0l216 1136h136h136l-216 -1136h-136h-136zM267 1469l506 270l80 -212l-512 -249z" />
<glyph unicode="&#xee;" horiz-adv-x="492" d="M103 0l216 1136h136h136l-216 -1136h-136h-136zM80 1303l354 281h107h107l248 -281h-299l-81 130l-134 -130h-302z" />
<glyph unicode="&#xef;" horiz-adv-x="492" d="M109 0l216 1136h136h136l-216 -1136h-136h-136zM141 1303l52 273h274l-52 -273h-274zM573 1303l52 273h274l-52 -273h-274z" />
<glyph unicode="&#xf0;" horiz-adv-x="1311" d="M150 459v4q0 280 221.5 496.5t508.5 216.5q70 0 123 -36q-59 68 -132 126l-325 -91l-157 117l306 85q-92 48 -195 83l329 85q87 -39 162 -85l300 84l138 -122l-284 -79q90 -84 149 -184q101 -171 101 -372q0 -82 -17 -169q-55 -288 -258.5 -471.5t-470.5 -183.5 q-216 0 -357 141.5t-142 354.5zM428 489q0 -121 75 -198.5t193 -77.5q163 0 284 130.5t121 306.5q1 121 -75 198.5t-194 77.5q-163 0 -284 -131q-120 -130 -120 -306z" />
<glyph unicode="&#xf1;" horiz-adv-x="1229" d="M111 0l216 1136h125h125l-19 -100q158 139 336 139q204 0 300 -149q64 -100 64 -242q0 -70 -16 -151l-120 -633h-136h-136l108 570q15 78 15 139q0 75 -23 125q-41 90 -153 91q-117 0 -193 -80t-105 -234l-116 -611h-136h-136zM495 1481q55 38 128 64t124 26q27 0 82 -12 t107 -29q24 -8 54 -13.5t48 -5.5q35 0 83 13.5t82 33.5l81 -166q-51 -38 -123.5 -64t-126.5 -26q-21 0 -76.5 12t-113.5 30q-19 6 -47.5 10t-51.5 4q-35 0 -84 -12.5t-84 -30.5z" />
<glyph unicode="&#xf2;" horiz-adv-x="1311" d="M145 458v4q0 280 222 496.5t509 216.5q217 0 358.5 -142t141.5 -359q0 -279 -222 -495t-509 -216q-217 0 -358.5 141.5t-141.5 353.5zM423 488q0 -121 75 -198t194 -77q164 0 285 130t121 305q0 122 -75.5 199.5t-194.5 77.5q-163 0 -284 -130.5t-121 -306.5zM604 1537 l157 206l398 -280l-142 -187z" />
<glyph unicode="&#xf3;" horiz-adv-x="1311" d="M145 458v4q0 280 222 496.5t509 216.5q217 0 358.5 -142t141.5 -359q0 -279 -222 -495t-509 -216q-217 0 -358.5 141.5t-141.5 353.5zM423 488q0 -121 75 -198t194 -77q164 0 285 130t121 305q0 122 -75.5 199.5t-194.5 77.5q-163 0 -284 -130.5t-121 -306.5zM674 1469 l506 270l80 -212l-512 -249z" />
<glyph unicode="&#xf4;" horiz-adv-x="1311" d="M145 458v4q0 280 222 496.5t509 216.5q217 0 358.5 -142t141.5 -359q0 -279 -222 -495t-509 -216q-217 0 -358.5 141.5t-141.5 353.5zM423 488q0 -121 75 -198t194 -77q164 0 285 130t121 305q0 122 -75.5 199.5t-194.5 77.5q-163 0 -284 -130.5t-121 -306.5zM493 1303 l354 281h107h107l248 -281h-299l-81 130l-134 -130h-302z" />
<glyph unicode="&#xf5;" horiz-adv-x="1311" d="M145 458v4q0 280 222 496.5t509 216.5q217 0 358.5 -142t141.5 -359q0 -279 -222 -495t-509 -216q-217 0 -358.5 141.5t-141.5 353.5zM423 488q0 -121 75 -198t194 -77q164 0 285 130t121 305q0 122 -75.5 199.5t-194.5 77.5q-163 0 -284 -130.5t-121 -306.5zM531 1481 q55 38 128 64t124 26q27 0 82 -12t107 -29q24 -8 54 -13.5t48 -5.5q35 0 83 13.5t82 33.5l81 -166q-51 -38 -123.5 -64t-126.5 -26q-21 0 -76.5 12t-113.5 30q-19 6 -47.5 10t-51.5 4q-35 0 -84 -12.5t-84 -30.5z" />
<glyph unicode="&#xf6;" horiz-adv-x="1311" d="M145 458v4q0 280 222 496.5t509 216.5q217 0 358.5 -142t141.5 -359q0 -279 -222 -495t-509 -216q-217 0 -358.5 141.5t-141.5 353.5zM423 488q0 -121 75 -198t194 -77q164 0 285 130t121 305q0 122 -75.5 199.5t-194.5 77.5q-163 0 -284 -130.5t-121 -306.5zM548 1303 l52 273h274l-52 -273h-274zM980 1303l52 273h274l-52 -273h-274z" />
<glyph unicode="&#xf7;" horiz-adv-x="1229" d="M172 392l47 246h1032l-47 -246h-1032zM482 -45l46 247h248l-46 -247h-248zM647 828l48 247h248l-48 -247h-248z" />
<glyph unicode="&#xf8;" horiz-adv-x="1352" d="M166 458v4q0 280 222 496.5t509 216.5q124 0 222 -46l98 113l177 -138l-99 -114q101 -131 102 -316q0 -279 -222 -495t-509 -216q-125 0 -226 46l-94 -109l-177 138l98 113q-101 127 -101 307zM444 488q-1 -61 19 -112l360 413l109 125q-37 11 -83 11q-163 0 -284 -130.5 t-121 -306.5zM627 223q40 -9 86 -10q164 0 285 130t121 305q1 65 -21 116l-358 -411z" />
<glyph unicode="&#xf9;" horiz-adv-x="1229" d="M178 355v8q0 66 15 142l120 631h136h136l-108 -568q-15 -78 -15 -139q0 -75 23 -125q41 -90 153 -91q117 0 193 80t105 234l116 609h136h136l-216 -1136h-125h-125l19 102q-154 -139 -335 -139q-204 0 -300 149q-65 100 -64 243zM554 1537l157 206l398 -280l-142 -187z " />
<glyph unicode="&#xfa;" horiz-adv-x="1229" d="M178 355v8q0 66 15 142l120 631h136h136l-108 -568q-15 -78 -15 -139q0 -75 23 -125q41 -90 153 -91q117 0 193 80t105 234l116 609h136h136l-216 -1136h-125h-125l19 102q-154 -139 -335 -139q-204 0 -300 149q-65 100 -64 243zM624 1469l506 270l80 -212l-512 -249z " />
<glyph unicode="&#xfb;" horiz-adv-x="1229" d="M178 355v8q0 66 15 142l120 631h136h136l-108 -568q-15 -78 -15 -139q0 -75 23 -125q41 -90 153 -91q117 0 193 80t105 234l116 609h136h136l-216 -1136h-125h-125l19 102q-154 -139 -335 -139q-204 0 -300 149q-65 100 -64 243zM443 1303l354 281h107h107l248 -281h-299 l-81 130l-134 -130h-302z" />
<glyph unicode="&#xfc;" horiz-adv-x="1229" d="M178 355v8q0 66 15 142l120 631h136h136l-108 -568q-15 -78 -15 -139q0 -75 23 -125q41 -90 153 -91q117 0 193 80t105 234l116 609h136h136l-216 -1136h-125h-125l19 102q-154 -139 -335 -139q-204 0 -300 149q-65 100 -64 243zM498 1303l52 273h274l-52 -273h-274z M930 1303l52 273h274l-52 -273h-274z" />
<glyph unicode="&#xfd;" horiz-adv-x="1188" d="M154 -382l300 483l-220 1035h153h154l127 -721l401 721h158h159l-935 -1518h-148h-149zM616 1469l506 270l80 -212l-512 -249z" />
<glyph unicode="&#xfe;" horiz-adv-x="1352" d="M27 -379l360 1894h136h136l-94 -493q183 154 404 153q192 0 317 -138.5t125 -347.5v-4q0 -284 -205 -503q-203 -219 -467 -219q-225 1 -348 143l-92 -485h-136h-136zM460 569q-27 -143 52.5 -250.5t211.5 -107.5q166 0 288.5 130.5t122.5 307.5q1 122 -76.5 200 t-197.5 78q-134 0 -253.5 -107t-147.5 -251z" />
<glyph unicode="&#xff;" horiz-adv-x="1188" d="M154 -382l300 483l-220 1035h153h154l127 -721l401 721h158h159l-935 -1518h-148h-149zM490 1303l52 273h274l-52 -273h-274zM922 1303l52 273h274l-52 -273h-274z" />
<glyph unicode="&#x131;" horiz-adv-x="492" d="M109 0l216 1136h136h136l-216 -1136h-136h-136z" />
<glyph unicode="&#x152;" horiz-adv-x="2171" d="M201 617q0 372 280 651q280 278 654 278q271 0 452 -190l1 -1l30 160h282h442l-24 -131l-25 -131h-442l-71 -370h420l-25 -131l-25 -131h-420l-69 -359h454l-25 -131l-24 -131h-454h-282l27 142q-237 -171 -521 -171q-279 0 -457 181t-178 465zM489 659 q0 -189 112.5 -309t288.5 -120q230 0 416.5 192t186.5 430q0 189 -113 312q-114 123 -288 123q-236 0 -419.5 -191t-183.5 -437z" />
<glyph unicode="&#x153;" horiz-adv-x="2212" d="M156 460q1 281 218 498q218 217 500 217q211 0 349 -141q38 -38 65 -83l4 4q228 220 488 220q213 0 352.5 -136.5t139.5 -345.5q1 -126 -54 -246h-882q12 -97 73 -161q72 -73 191 -73q88 0 167 39t126 106h288q-103 -187 -269.5 -291t-362.5 -104q-199 0 -343 154 q-31 34 -56 70l-8 -8q-217 -216 -499 -216q-211 0 -349 141t-138 356zM435 488q0 -121 75 -198t194 -77q163 0 284 130t121 306q0 121 -75 199q-75 77 -194 77q-163 0 -284 -130.5t-121 -306.5zM1373 665h625q-5 110 -74 181q-73 77 -189 77q-160 0 -280 -132 q-52 -58 -82 -126z" />
<glyph unicode="&#x178;" horiz-adv-x="1270" d="M276 1515h155h155l206 -694l457 694h153h153l-675 -959l-106 -556h-140h-140l107 561zM589 1651l52 273h274l-52 -273h-274zM1021 1651l52 273h274l-52 -273h-274z" />
<glyph unicode="&#x2c6;" horiz-adv-x="1106" d="M387 1303l355 281h107h107l247 -281h-299l-80 130l-135 -130h-302z" />
<glyph unicode="&#x2dc;" horiz-adv-x="983" d="M365 1481q54 38 127 64t124 26q27 0 82.5 -12t106.5 -29q25 -8 55 -13.5t48 -5.5q35 0 83 13.5t82 33.5l81 -166q-51 -38 -124 -64t-127 -26q-21 0 -76.5 12t-112.5 30q-19 6 -47.5 10t-51.5 4q-35 0 -85 -13q-48 -12 -84 -30z" />
<glyph unicode="&#x2013;" horiz-adv-x="1024" d="M160 470l46 242h880l-46 -242h-880z" />
<glyph unicode="&#x2014;" horiz-adv-x="2048" d="M160 470l46 242h1904l-46 -242h-1904z" />
<glyph unicode="&#x2018;" horiz-adv-x="573" d="M324 954l55 287q25 128 107.5 198.5t216.5 76.5l-27 -138q-88 -15 -115 -55q-18 -28 -31 -97h118l-26 -136l-26 -136h-136h-136z" />
<glyph unicode="&#x2019;" horiz-adv-x="573" d="M326 952l26 138q88 15 116 55q18 27 30 97h-118l26 136l26 136h136h136l-54 -287q-25 -128 -107.5 -198.5t-216.5 -76.5z" />
<glyph unicode="&#x201a;" horiz-adv-x="573" d="M96 -290l27 138q87 15 115 55q18 27 30 97h-118l25 136l26 136h136h136l-53 -287q-25 -128 -107.5 -198.5t-216.5 -76.5z" />
<glyph unicode="&#x201c;" horiz-adv-x="983" d="M319 954l55 287q25 128 107.5 198.5t216.5 76.5l-27 -138q-88 -15 -115 -55q-18 -28 -31 -97h118l-26 -136l-26 -136h-136h-136zM743 954l55 287q25 128 107.5 198.5t216.5 76.5l-27 -138q-88 -15 -115 -55q-18 -28 -31 -97h118l-26 -136l-26 -136h-136h-136z" />
<glyph unicode="&#x201d;" horiz-adv-x="983" d="M322 952l26 138q88 15 116 55q18 27 30 97h-118l26 136l26 136h136h136l-54 -287q-25 -128 -107.5 -198.5t-216.5 -76.5zM746 952l26 138q88 15 116 55q18 27 30 97h-118l26 136l26 136h136h136l-54 -287q-25 -128 -107.5 -198.5t-216.5 -76.5z" />
<glyph unicode="&#x201e;" horiz-adv-x="983" d="M92 -290l27 138q87 15 115 55q18 27 30 97h-118l25 136l26 136h136h136l-53 -287q-25 -128 -107.5 -198.5t-216.5 -76.5zM516 -290l27 138q87 15 115 55q18 27 30 97h-118l25 136l26 136h136h136l-53 -287q-25 -128 -107.5 -198.5t-216.5 -76.5z" />
<glyph unicode="&#x2022;" horiz-adv-x="1229" d="M440 771q25 134 133 226t239 92t204 -92t48 -226q-26 -134 -135 -226q-107 -92 -238 -92t-204 92t-47 226z" />
<glyph unicode="&#x2026;" horiz-adv-x="2048" d="M205 0l52 273h274l-52 -273h-274zM886 0l52 273h274l-52 -273h-274zM1567 0l52 273h274l-52 -273h-274z" />
<glyph unicode="&#x2039;" horiz-adv-x="492" d="M193 487l20 104l20 104l337 264l-47 -249l-160 -119l114 -120l-47 -249z" />
<glyph unicode="&#x203a;" horiz-adv-x="492" d="M143 222l47 249l160 119l-114 120l47 249l237 -265l-20 -104l-20 -104z" />
<glyph unicode="&#x20ac;" d="M105 470l76 220h105q5 62 17 118h-133l76 220h111q43 125 109 227q186 290 479 290q191 0 297 -124q96 -113 96 -299l-1 -39h-283q0 107 -36.5 158t-112.5 51q-154 0 -252 -219l-18 -45h353l-76 -220h-335q-9 -56 -14 -118h307l-76 -220h-239q7 -107 41 -173 q40 -74 113 -74q75 0 128 50t85 151h289q-59 -223 -198 -339q-137 -115 -346 -115q-180 0 -285 144q-95 134 -103 356h-174z" />
<glyph unicode="&#x2122;" horiz-adv-x="2048" d="M268 1343l16 86l16 86h542l-16 -86l-16 -86h-179l-141 -737h-92h-92l141 737h-179zM791 606l173 909h127h128l117 -673l373 673h127h128l-173 -909h-96h-97l120 626l-348 -626h-79h-79l-108 626l-120 -626h-96h-97z" />
<glyph unicode="&#x2215;" horiz-adv-x="328" d="M-251 0l909 1515h199l-909 -1515h-199z" />
<glyph unicode="&#xe000;" horiz-adv-x="1135" d="M0 1135h1135v-1135h-1135v1135z" />
<glyph unicode="&#xfb01;" horiz-adv-x="1065" d="M129 0l170 895h-96l46 241h96q43 184 159 293q125 116 308 116l54 -1l-50 -264h-13q-85 0 -127.5 -30.5t-56.5 -102.5l-2 -11h521l-216 -1136h-136h-136l170 895h-249l-170 -895h-136h-136zM891 1265l47 250h272l-47 -250h-272z" />
<glyph unicode="&#xfb02;" horiz-adv-x="1065" d="M684 0l288 1515h136h136l-288 -1515h-136h-136zM127 0l170 895h-96l46 241h96q43 184 159 293q125 116 308 116l54 -1l-50 -264h-13q-85 0 -127.5 -30.5t-56.5 -102.5l-2 -11h160l-46 -241h-160l-170 -895h-136h-136z" />
<glyph unicode="&#xfb03;" horiz-adv-x="1638" d="M1255 0l216 1136h136h136l-216 -1136h-136h-136zM1496 1265l47 250h272l-47 -250h-272zM700 0l170 895h-96l46 241h96q43 184 159 293q125 116 308 116l54 -1l-50 -264h-13q-85 0 -127.5 -30.5t-56.5 -102.5l-2 -11h160l-46 -241h-160l-170 -895h-136h-136zM127 0 l170 895h-96l46 241h96q43 184 159 293q125 116 308 116l54 -1l-50 -264h-13q-85 0 -127.5 -30.5t-56.5 -102.5l-2 -11h160l-46 -241h-160l-170 -895h-136h-136z" />
<glyph unicode="&#xfb04;" horiz-adv-x="1638" d="M1257 0l288 1515h136h136l-288 -1515h-136h-136zM700 0l170 895h-96l46 241h96q43 184 159 293q125 116 308 116l54 -1l-50 -264h-13q-85 0 -127.5 -30.5t-56.5 -102.5l-2 -11h160l-46 -241h-160l-170 -895h-136h-136zM127 0l170 895h-96l46 241h96q43 184 159 293 q125 116 308 116l54 -1l-50 -264h-13q-85 0 -127.5 -30.5t-56.5 -102.5l-2 -11h160l-46 -241h-160l-170 -895h-136h-136z" />
<glyph horiz-adv-x="0" d="M-639 757q63 329 333 556t598 227t512.5 -227t121.5 -556q-63 -328 -332.5 -555t-598.5 -227t-513 227t-121 555zM-454 757q-49 -255 91 -430.5t390 -175.5q251 0 458 175.5t256 430.5t-90.5 431t-391.5 176q-251 0 -457.5 -176t-255.5 -431z" />
<glyph horiz-adv-x="0" d="M-302 655q0 241 157 407.5t383 166.5q146 0 237.5 -84.5t100.5 -228.5h-186q-12 81 -56.5 119.5t-125.5 38.5q-134 0 -229 -117.5t-96 -282.5q0 -107 56.5 -169t153.5 -62q82 0 140 40t97 124h187q-54 -142 -177.5 -228t-272.5 -86q-169 0 -268.5 98t-100.5 264z" />
<glyph horiz-adv-x="0" d="M-639 757q63 329 333 556t598 227t512.5 -227t121.5 -556q-63 -328 -332.5 -555t-598.5 -227t-513 227t-121 555zM-456 757q-48 -253 92.5 -428t391.5 -175q252 0 459.5 175t255.5 428q48 254 -92.5 429t-392.5 175t-459 -175t-255 -429z" />
<glyph horiz-adv-x="0" d="M-278 301l171 898h89h277q143 0 213 -47t70 -143q0 -151 -100 -224q-41 -29 -101 -48q124 -64 106 -201l-16 -107q-8 -59 -10 -87.5t3 -40.5h-87h-87q-9 1 -9 35t10 115l10 93q10 90 -98 108q-49 8 -194 11l-69 -362h-89h-89zM-4 803h173q84 0 134.5 40.5t50.5 106.5 q0 50 -34.5 75.5t-103.5 25.5h-173z" />
<glyph horiz-adv-x="688" d="M373 606l140 734h-118l33 175h317l-173 -909h-99h-100z" />
<glyph horiz-adv-x="688" d="M137 738l15 77l15 78l547 622h80h81l-116 -609h100l-32 -168h-100l-25 -132h-185l25 132h-405zM360 906h214l66 342z" />
<glyph horiz-adv-x="688" d="M373 606l140 734h-118l33 175h317l-173 -909h-99h-100z" />
<glyph horiz-adv-x="688" d="M150 606l17 86l16 86q357 270 434 341q76 71 76 133q0 48 -26 75.5t-71 27.5q-60 0 -97.5 -40t-53.5 -121h-195q32 157 134 248t245 91q117 0 191.5 -66.5t74.5 -170.5v-3q1 -142 -101 -248q-76 -79 -328 -263h344l-34 -176h-626z" />
<glyph horiz-adv-x="688" d="M178 890h201q-1 -60 28 -93.5t81 -33.5q59 0 106.5 46.5t47.5 103.5q0 53 -34 85t-91 32h-57l33 174h38q51 0 83 26t32 68q0 27 -14.5 43.5t-38.5 16.5q-29 0 -48 -18.5t-29 -56.5h-194q26 108 113 179t193 71q91 0 153.5 -60t62.5 -148q1 -108 -90 -185l-17 -13 q16 -6 28 -17q77 -58 78 -155q0 -147 -118 -257t-276 -110q-133 0 -206.5 81.5t-64.5 220.5z" />
<glyph horiz-adv-x="688" d="M137 738l15 77l15 78l547 622h80h81l-116 -609h100l-32 -168h-100l-25 -132h-185l25 132h-405zM360 906h214l66 342z" />
<glyph horiz-adv-x="0" d="M-297 234l157 206l398 -280l-142 -187z" />
<glyph horiz-adv-x="0" d="M-227 166l506 270l80 -212l-512 -249z" />
<glyph horiz-adv-x="0" d="M-408 0l354 281h107h107l248 -281h-299l-81 130l-134 -130h-302z" />
<glyph horiz-adv-x="0" d="M-370 178q55 38 128 64t124 26q27 0 82 -12t107 -29q24 -8 54 -13.5t48 -5.5q35 0 83 13.5t82 33.5l81 -166q-51 -38 -123.5 -64t-126.5 -26q-21 0 -76.5 12t-113.5 30q-19 6 -47.5 10t-51.5 4q-35 0 -84 -12.5t-84 -30.5z" />
<glyph horiz-adv-x="0" d="M-353 0l52 273h274l-52 -273h-274zM79 0l52 273h274l-52 -273h-274z" />
<glyph horiz-adv-x="0" d="M-204 114q16 92 91 156t167 64t144.5 -64t36.5 -156t-90.5 -155.5t-166.5 -63.5t-145 63.5t-37 155.5zM-66 114q-6 -34 13.5 -57.5t53.5 -23.5t62 23.5t34 57.5t-13.5 58t-53.5 24t-62 -24t-34 -58z" />
<glyph horiz-adv-x="0" d="M-290 -335h109q3 -36 23.5 -55t56.5 -19q43 0 74.5 26.5t39.5 70.5q8 41 -15 71t-62 30q-33 0 -59 -12t-38 -32l-93 37l142 230l101 -14l-69 -109l53 3q84 0 126 -58t24 -149q-16 -88 -84.5 -143.5t-158.5 -55.5q-77 0 -123 48.5t-47 130.5z" />
<glyph horiz-adv-x="0" d="M-297 234l157 206l398 -280l-142 -187z" />
<glyph horiz-adv-x="0" d="M-227 166l506 270l80 -212l-512 -249z" />
<glyph horiz-adv-x="0" d="M-408 0l354 281h107h107l248 -281h-299l-81 130l-134 -130h-302z" />
<glyph horiz-adv-x="0" d="M-370 178q55 38 128 64t124 26q27 0 82 -12t107 -29q24 -8 54 -13.5t48 -5.5q35 0 83 13.5t82 33.5l81 -166q-51 -38 -123.5 -64t-126.5 -26q-21 0 -76.5 12t-113.5 30q-19 6 -47.5 10t-51.5 4q-35 0 -84 -12.5t-84 -30.5z" />
<glyph horiz-adv-x="0" d="M-353 0l52 273h274l-52 -273h-274zM79 0l52 273h274l-52 -273h-274z" />
<glyph horiz-adv-x="0" d="M-200 185q16 92 90.5 156t166.5 64t145 -64t37 -156t-90.5 -155.5t-166.5 -63.5t-145 63.5t-37 155.5zM-62 185q-6 -34 13.5 -57.5t53.5 -23.5t62 23.5t34 57.5t-14 58t-54 24t-61.5 -24t-33.5 -58z" />
<glyph horiz-adv-x="0" d="M-265 -335h109q3 -36 23.5 -55t56.5 -19q43 0 74.5 26.5t39.5 70.5q8 41 -15 71t-62 30q-33 0 -59 -12t-38 -32l-93 37l142 230l101 -14l-69 -109l53 3q84 0 126 -58t24 -149q-16 -88 -84.5 -143.5t-158.5 -55.5q-77 0 -123 48.5t-47 130.5z" />
<glyph horiz-adv-x="0" d="M-15 1343l16 86l16 86h542l-16 -86l-16 -86h-179l-141 -737h-92h-92l141 737h-179z" />
<glyph horiz-adv-x="0" d="M-385 606l173 909h127h128l117 -673l373 673h127h128l-173 -909h-96h-97l120 626l-348 -626h-79h-79l-108 626l-120 -626h-96h-97z" />
</font>
</defs>
</svg>
